<svg title="sample" class="mse-diff" width="100%" height="100%" viewBox="0 0 1090 519" fill="none" xmlns="http://www.w3.org/2000/svg">
<defs>
<link href="a1b01e734b573fca08eb1a65e6df9a38.css" type="text/css" rel="stylesheet" xmlns="http://www.w3.org/1999/xhtml"/>
 </defs>
<rect width="1090" height="519" fill="#E5E5E5"/>
<g clip-path="url(#clip0)">
<rect width="1090" height="519" fill="#1D1D1D"/>
<rect x="249.5" y="325.5" width="98" height="75" fill="#C4C4C4" fill-opacity="0.04" stroke="#517FF3"/>
<rect x="249.5" y="184.5" width="98" height="75" fill="#C4C4C4" fill-opacity="0.04" stroke="#517FF3"/>
<rect x="347.5" y="184.5" width="98" height="75" fill="#C4C4C4" fill-opacity="0.04" stroke="#517FF3"/>
<rect x="316.5" y="52.5" width="129" height="132" fill="#C4C4C4" fill-opacity="0.04" stroke="#517FF3"/>
<rect x="445.5" y="52.5" width="123" height="75" fill="#C4C4C4" fill-opacity="0.04" stroke="#517FF3"/>
<rect x="445.5" y="127.5" width="123" height="132" fill="#C4C4C4" fill-opacity="0.04" stroke="#517FF3"/>
<rect x="347.5" y="325.5" width="98" height="75" fill="#C4C4C4" fill-opacity="0.04" stroke="#517FF3"/>
<rect x="445.5" y="325.5" width="98" height="75" fill="#C4C4C4" fill-opacity="0.04" stroke="#517FF3"/>
<rect x="543.5" y="325.5" width="98" height="75" fill="#C4C4C4" fill-opacity="0.04" stroke="#517FF3"/>
<rect x="641.5" y="325.5" width="98" height="75" fill="#C4C4C4" fill-opacity="0.04" stroke="#517FF3"/>
<rect x="641.5" y="185.5" width="98" height="140" fill="#C4C4C4" fill-opacity="0.04" stroke="#517FF3"/>
<rect x="641.5" y="41.5" width="98" height="144" fill="#C4C4C4" fill-opacity="0.04" stroke="#517FF3"/>
<rect x="554" y="315" width="76" height="22" fill="#42FF00"/>
<rect x="404" y="193" width="34" height="15" fill="#FF7A00"/>
<rect x="528" y="132" width="34" height="15" fill="#FF7A00"/>
<rect x="651" y="97" width="12" height="42" fill="#FF7A00"/>
<line x1="421.5" y1="208" x2="421.5" y2="318" stroke="#42FF00"/>
<line x1="421.996" y1="318.5" x2="553.996" y2="317.5" stroke="#42FF00"/>
<line x1="545.5" y1="147" x2="545.5" y2="208" stroke="#42FF00"/>
<line x1="545" y1="207.5" x2="580" y2="207.5" stroke="#42FF00"/>
<line x1="580.5" y1="208" x2="580.5" y2="315" stroke="#42FF00"/>
<line x1="621.5" y1="118" x2="621.5" y2="315" stroke="#42FF00"/>
<line x1="621" y1="117.5" x2="651" y2="117.5" stroke="#42FF00"/>
<path class="secondary-active" d="M473.5 139C473.5 143.114 469.947 146.5 465.5 146.5C461.053 146.5 457.5 143.114 457.5 139C457.5 134.886 461.053 131.5 465.5 131.5C469.947 131.5 473.5 134.886 473.5 139Z" stroke="#FF7A00"/>
<path class="secondary-active" d="M473.5 173C473.5 177.114 469.947 180.5 465.5 180.5C461.053 180.5 457.5 177.114 457.5 173C457.5 168.886 461.053 165.5 465.5 165.5C469.947 165.5 473.5 168.886 473.5 173Z" stroke="#FF7A00"/>
<path class="primary-active" d="M529.5 340C529.5 344.114 525.947 347.5 521.5 347.5C517.053 347.5 513.5 344.114 513.5 340C513.5 335.886 517.053 332.5 521.5 332.5C525.947 332.5 529.5 335.886 529.5 340Z" stroke="#42FF00"/>
<path class="primary-active" d="M465.5 385C465.5 389.114 461.947 392.5 457.5 392.5C453.053 392.5 449.5 389.114 449.5 385C449.5 380.886 453.053 377.5 457.5 377.5C461.947 377.5 465.5 380.886 465.5 385Z" stroke="#42FF00"/>
<path class="secondary-active" d="M473.5 199C473.5 203.114 469.947 206.5 465.5 206.5C461.053 206.5 457.5 203.114 457.5 199C457.5 194.886 461.053 191.5 465.5 191.5C469.947 191.5 473.5 194.886 473.5 199Z" stroke="#FF7A00"/>
<path d="M665.5 241C665.5 245.114 661.947 248.5 657.5 248.5C653.053 248.5 649.5 245.114 649.5 241C649.5 236.886 653.053 233.5 657.5 233.5C661.947 233.5 665.5 236.886 665.5 241Z" stroke="#FF7A00"/>
<path  d="M686.5 169C686.5 173.114 682.947 176.5 678.5 176.5C674.053 176.5 670.5 173.114 670.5 169C670.5 164.886 674.053 161.5 678.5 161.5C682.947 161.5 686.5 164.886 686.5 169Z" stroke="#FF7A00"/>
<path d="M717.5 118C717.5 122.114 713.947 125.5 709.5 125.5C705.053 125.5 701.5 122.114 701.5 118C701.5 113.886 705.053 110.5 709.5 110.5C713.947 110.5 717.5 113.886 717.5 118Z" stroke="#FF7A00"/>
<path class="secondary-active" d="M473.5 226C473.5 230.114 469.947 233.5 465.5 233.5C461.053 233.5 457.5 230.114 457.5 226C457.5 221.886 461.053 218.5 465.5 218.5C469.947 218.5 473.5 221.886 473.5 226Z" stroke="#FF7A00"/>
<line x1="474" y1="138.5" x2="534" y2="138.5" stroke="#FF7A00"/>
<line x1="474.017" y1="170.5" x2="534.017" y2="172.5" stroke="#FF7A00"/>
<line x1="473.008" y1="198.5" x2="534.008" y2="199.5" stroke="#FF7A00"/>
<line x1="473" y1="225.5" x2="534" y2="225.5" stroke="#FF7A00"/>
<line x1="533.5" y1="226" x2="533.5" y2="147" stroke="#FF7A00"/>
<line x1="580.5" y1="338" x2="580.5" y2="385" stroke="#42FF00"/>
<line x1="466" y1="384.5" x2="580" y2="384.5" stroke="#42FF00"/>
<line x1="530" y1="339.5" x2="580" y2="339.5" stroke="#42FF00"/>
<line x1="663" y1="117.5" x2="701" y2="117.5" stroke="#FF7A00"/>
<line x1="663" y1="131.5" x2="679" y2="131.5" stroke="#FF7A00"/>
<line x1="679.5" y1="131" x2="679.5" y2="161" stroke="#FF7A00"/>
<line x1="658.5" y1="136.005" x2="657.5" y2="234.005" stroke="#FF7A00"/>
<line x1="29.9997" y1="184.5" x2="248.998" y2="184.354" stroke="#517FF3" stroke-dasharray="2 2"/>
<line x1="29.9997" y1="325.646" x2="248.998" y2="325.5" stroke="#517FF3" stroke-dasharray="2 2"/>
<line x1="29.9997" y1="400.646" x2="248.998" y2="400.5" stroke="#517FF3" stroke-dasharray="2 2"/>
<line x1="29.9997" y1="259.5" x2="248.998" y2="259.354" stroke="#517FF3" stroke-dasharray="2 2"/>
<line x1="248.5" y1="184" x2="248.5" y2="9" stroke="#517FF3" stroke-dasharray="2 2"/>
<line x1="249.5" y1="498" x2="249.5" y2="401" stroke="#517FF3" stroke-dasharray="2 2"/>
<line x1="346.5" y1="498" x2="346.5" y2="401" stroke="#517FF3" stroke-dasharray="2 2"/>
<line x1="444.5" y1="498" x2="444.5" y2="401" stroke="#517FF3" stroke-dasharray="2 2"/>
<line x1="543.5" y1="498" x2="543.5" y2="401" stroke="#517FF3" stroke-dasharray="2 2"/>
<line x1="641.5" y1="498" x2="641.5" y2="401" stroke="#517FF3" stroke-dasharray="2 2"/>
<line x1="30" y1="51.5" x2="316" y2="51.5" stroke="#517FF3" stroke-dasharray="2 2"/>
<line x1="740" y1="40.5" x2="1026" y2="40.5" stroke="#517FF3" stroke-dasharray="2 2"/>
<line x1="740" y1="185.5" x2="1026" y2="185.5" stroke="#517FF3" stroke-dasharray="2 2"/>
<line x1="740" y1="324.5" x2="1026" y2="324.5" stroke="#517FF3" stroke-dasharray="2 2"/>
<path d="M112.056 458.236C112.488 458.236 112.704 458.452 112.704 458.884V461.764C112.704 462.196 112.488 462.412 112.056 462.412H95.82C95.076 462.412 94.56 462.556 94.272 462.844C93.984 463.108 93.84 463.504 93.84 464.032V464.572C93.84 465.052 93.984 465.436 94.272 465.724C94.56 465.988 95.076 466.12 95.82 466.12H107.952C109.968 466.12 111.408 466.54 112.272 467.38C113.136 468.22 113.568 469.408 113.568 470.944V472.96C113.568 473.752 113.472 474.46 113.28 475.084C113.088 475.708 112.764 476.236 112.308 476.668C111.876 477.1 111.3 477.436 110.58 477.676C109.86 477.892 108.972 478 107.916 478H89.484C89.052 478 88.836 477.784 88.836 477.352V474.472C88.836 474.04 89.052 473.824 89.484 473.824H106.548C107.292 473.824 107.808 473.692 108.096 473.428C108.408 473.164 108.564 472.72 108.564 472.096V471.124C108.564 470.644 108.408 470.272 108.096 470.008C107.808 469.744 107.292 469.612 106.548 469.612H94.452C92.436 469.612 90.996 469.204 90.132 468.388C89.268 467.548 88.836 466.336 88.836 464.752V463.168C88.836 462.424 88.932 461.752 89.124 461.152C89.316 460.528 89.628 460 90.06 459.568C90.516 459.136 91.104 458.812 91.824 458.596C92.544 458.356 93.432 458.236 94.488 458.236H112.056ZM135.787 458.236C137.011 458.236 138.019 458.344 138.811 458.56C139.627 458.752 140.263 459.088 140.719 459.568C141.199 460.024 141.535 460.636 141.727 461.404C141.919 462.148 142.015 463.06 142.015 464.14V467.56C142.015 468.328 141.847 468.868 141.511 469.18C141.175 469.468 140.659 469.612 139.963 469.612H121.783V470.476C121.783 471.604 122.047 472.42 122.575 472.924C123.127 473.428 124.183 473.68 125.743 473.68H140.755C141.187 473.68 141.403 473.896 141.403 474.328V477.352C141.403 477.784 141.187 478 140.755 478H125.239C123.607 478 122.239 477.868 121.135 477.604C120.055 477.34 119.179 476.92 118.507 476.344C117.859 475.744 117.391 474.988 117.103 474.076C116.815 473.14 116.671 472.024 116.671 470.728V465.544C116.671 464.248 116.815 463.144 117.103 462.232C117.391 461.296 117.859 460.54 118.507 459.964C119.179 459.364 120.055 458.932 121.135 458.668C122.239 458.38 123.607 458.236 125.239 458.236H135.787ZM121.783 466.408H136.363C136.771 466.408 136.975 466.204 136.975 465.796V464.284C136.975 463.54 136.819 463.012 136.507 462.7C136.195 462.388 135.619 462.232 134.779 462.232H125.743C124.183 462.232 123.127 462.484 122.575 462.988C122.047 463.468 121.783 464.284 121.783 465.436V466.408ZM164.302 458.236C165.91 458.236 167.266 458.38 168.37 458.668C169.474 458.932 170.35 459.364 170.998 459.964C171.67 460.54 172.15 461.296 172.438 462.232C172.726 463.144 172.87 464.248 172.87 465.544V470.728C172.87 472.024 172.726 473.14 172.438 474.076C172.15 474.988 171.67 475.744 170.998 476.344C170.35 476.92 169.474 477.34 168.37 477.604C167.266 477.868 165.91 478 164.302 478H154.114C152.482 478 151.114 477.868 150.01 477.604C148.93 477.34 148.054 476.92 147.382 476.344C146.734 475.744 146.266 474.988 145.978 474.076C145.69 473.14 145.546 472.024 145.546 470.728V465.544C145.546 464.248 145.69 463.144 145.978 462.232C146.266 461.296 146.734 460.54 147.382 459.964C148.054 459.364 148.93 458.932 150.01 458.668C151.114 458.38 152.482 458.236 154.114 458.236H164.302ZM150.694 469.828C150.694 470.596 150.754 471.232 150.874 471.736C150.994 472.24 151.198 472.648 151.486 472.96C151.798 473.248 152.206 473.464 152.71 473.608C153.214 473.728 153.85 473.788 154.618 473.788H163.798C164.59 473.788 165.238 473.728 165.742 473.608C166.246 473.464 166.642 473.248 166.93 472.96C167.242 472.648 167.458 472.24 167.578 471.736C167.698 471.232 167.758 470.596 167.758 469.828V466.408C167.758 465.664 167.698 465.04 167.578 464.536C167.458 464.032 167.242 463.624 166.93 463.312C166.642 463 166.246 462.784 165.742 462.664C165.238 462.544 164.59 462.484 163.798 462.484H154.618C153.85 462.484 153.214 462.544 152.71 462.664C152.206 462.784 151.798 463 151.486 463.312C151.198 463.624 150.994 464.032 150.874 464.536C150.754 465.04 150.694 465.664 150.694 466.408V469.828ZM181.371 451C181.899 451 182.163 451.264 182.163 451.792V458.236H195.663C197.271 458.236 198.627 458.38 199.731 458.668C200.835 458.932 201.711 459.364 202.359 459.964C203.031 460.54 203.511 461.296 203.799 462.232C204.087 463.144 204.231 464.248 204.231 465.544V470.728C204.231 472.024 204.087 473.14 203.799 474.076C203.511 474.988 203.031 475.744 202.359 476.344C201.711 476.92 200.835 477.34 199.731 477.604C198.627 477.868 197.271 478 195.663 478H185.583C183.951 478 182.583 477.868 181.479 477.604C180.399 477.34 179.523 476.92 178.851 476.344C178.203 475.744 177.735 474.988 177.447 474.076C177.159 473.14 177.015 472.024 177.015 470.728V451.792C177.015 451.264 177.291 451 177.843 451H181.371ZM182.163 462.556V469.72C182.163 470.488 182.223 471.124 182.343 471.628C182.463 472.132 182.667 472.54 182.955 472.852C183.267 473.14 183.675 473.356 184.179 473.5C184.683 473.62 185.319 473.68 186.087 473.68H195.159C195.951 473.68 196.599 473.62 197.103 473.5C197.607 473.356 198.003 473.14 198.291 472.852C198.603 472.54 198.819 472.132 198.939 471.628C199.059 471.124 199.119 470.488 199.119 469.72V466.516C199.119 465.772 199.059 465.148 198.939 464.644C198.819 464.116 198.603 463.708 198.291 463.42C198.003 463.108 197.607 462.892 197.103 462.772C196.599 462.628 195.951 462.556 195.159 462.556H182.163ZM212.839 451C213.367 451 213.631 451.264 213.631 451.792V477.208C213.631 477.736 213.367 478 212.839 478H209.311C208.783 478 208.519 477.736 208.519 477.208V451.792C208.519 451.264 208.783 451 209.311 451H212.839ZM222.542 458.236C223.07 458.236 223.334 458.512 223.334 459.064V477.208C223.334 477.736 223.07 478 222.542 478H219.014C218.486 478 218.222 477.736 218.222 477.208V459.064C218.222 458.512 218.486 458.236 219.014 458.236H222.542ZM222.542 450.928C223.07 450.928 223.334 451.192 223.334 451.72V455.14C223.334 455.692 223.07 455.968 222.542 455.968H219.014C218.462 455.968 218.186 455.692 218.186 455.14V451.72C218.186 451.192 218.462 450.928 219.014 450.928H222.542Z" fill="white"/>
<g clip-path="url(#clip1)">
<path d="M61.2107 483.804L74.9268 479.775C77.3829 475.943 78.7971 471.447 78.7971 466.638C78.7971 452.632 66.7997 441.277 52 441.277C37.2004 441.277 25.2029 452.632 25.2029 466.638C25.2029 473.26 27.8848 479.287 32.2752 483.804H61.2107Z" fill="#4FABF7"/>
<path d="M59.2734 444.561C59.3358 443.503 60.4609 442.73 61.5589 443.032C61.75 443.084 61.9544 443.023 62.0761 442.874C62.6748 442.141 63.6124 441.669 64.6666 441.669C66.1231 441.669 67.3567 442.57 67.7814 443.815C67.8518 444.021 68.0691 444.143 68.2966 444.118C69.0692 444.035 69.8182 444.392 70.215 445.008C70.35 445.218 70.635 445.284 70.8619 445.164C71.1308 445.023 71.4495 444.957 71.7871 444.996C72.478 445.075 73.0331 445.606 73.1099 446.261C73.2119 447.13 72.4955 447.866 71.5973 447.866H58.76C57.9077 447.866 57.1863 447.206 57.2008 446.4C57.2159 445.561 57.9683 444.952 58.7867 444.985C59.0423 444.996 59.2591 444.803 59.2734 444.561V444.561Z" fill="#73C3F9"/>
<path d="M51.7585 451.234C51.8549 449.601 53.5905 448.409 55.2845 448.874C55.5792 448.955 55.8947 448.86 56.0825 448.63C57.0061 447.5 58.4525 446.773 60.0788 446.773C62.3259 446.773 64.229 448.162 64.8843 450.082C64.9928 450.4 65.328 450.588 65.679 450.55C66.8709 450.422 68.0264 450.973 68.6386 451.924C68.8468 452.247 69.2865 452.348 69.6365 452.165C70.0514 451.947 70.5431 451.845 71.0639 451.904C72.1298 452.027 72.986 452.846 73.1046 453.856C73.2621 455.197 72.1568 456.333 70.7712 456.333H50.9664C49.6518 456.333 48.5386 455.314 48.5611 454.07C48.5845 452.776 49.7452 451.837 51.0075 451.888C51.4021 451.904 51.7365 451.607 51.7585 451.234V451.234Z" fill="#9BD8F9"/>
<path d="M46.2409 464.309C46.1223 463.299 45.266 462.48 44.2002 462.358C43.6793 462.299 43.1877 462.401 42.7728 462.618C42.4228 462.802 41.9832 462.701 41.7749 462.378C41.1627 461.427 40.0072 460.876 38.8153 461.004C38.4643 461.042 38.1292 460.854 38.0206 460.536C37.3653 458.616 35.4622 457.226 33.2151 457.226C31.5888 457.226 30.1424 457.954 29.2188 459.084C29.031 459.314 28.7155 459.409 28.4208 459.328C27.6527 459.117 26.8766 459.248 26.248 459.605C25.5683 461.838 25.2031 464.198 25.2031 466.638C25.2031 466.688 25.2046 466.737 25.2049 466.786H43.9077C45.2931 466.787 46.3984 465.651 46.2409 464.309V464.309Z" fill="#73C3F9"/>
<path d="M64.6801 477.613H64.513V489.069C68.855 486.895 72.4898 483.625 75.006 479.648V461.318L58.0316 453.671V475.082H64.6802C65.4176 475.082 66.0175 475.65 66.0175 476.348C66.0175 477.046 65.4175 477.613 64.6801 477.613V477.613Z" fill="#3C58A0"/>
<path d="M58.0316 475.082H64.6802C64.6817 475.082 64.6833 475.082 64.6849 475.082V474.924C63.3515 474.548 63.4297 473.16 63.4297 473.16C63.4297 473.16 63.4297 460.376 63.4297 458.927C63.4297 457.478 64.7839 457.587 64.7839 457.587L64.6189 456.638L58.0317 453.671V475.082H58.0316Z" fill="#2A428C"/>
<path d="M32.1734 483.7C36.3212 488.015 42.0204 490.969 48.4365 491.776V477.666H48.4366H54.7309V463.321H32.1734V483.7Z" fill="#DAE2FE"/>
<path d="M38.0827 467.293C38.0827 465.099 39.9618 463.321 42.2798 463.321H32.1734V483.7C33.8954 485.492 35.8856 487.047 38.0827 488.313V467.293Z" fill="#BEC8F7"/>
<path d="M34.7016 451.553H52.2027V463.426H34.7016V451.553Z" fill="#DAE2FE"/>
<path d="M39.4078 460.619V454.36C39.4078 452.809 40.7357 451.553 42.3738 451.553H34.7016V463.426H42.3738C40.7357 463.426 39.4078 462.169 39.4078 460.619Z" fill="#BEC8F7"/>
<path d="M43.4522 443.848C42.9906 443.848 42.6163 443.494 42.6163 443.057V439.791C42.6163 439.354 42.9905 439 43.4522 439C43.9137 439 44.288 439.354 44.288 439.791V443.057C44.2879 443.494 43.9137 443.848 43.4522 443.848Z" fill="#DAE2FE"/>
<path d="M35.5163 466.061C35.0548 466.061 34.6805 466.415 34.6805 466.852V485.989C35.2199 486.422 35.7773 486.836 36.3522 487.228V466.852C36.3522 466.415 35.978 466.061 35.5163 466.061V466.061Z" fill="#A8B7EF"/>
<path d="M38.6906 466.061C38.229 466.061 37.8547 466.415 37.8547 466.852V488.181C38.3992 488.502 38.9567 488.804 39.5264 489.089V466.852C39.5264 466.415 39.1523 466.061 38.6906 466.061V466.061Z" fill="#A8B7EF"/>
<path d="M41.865 466.061C41.4035 466.061 41.0292 466.415 41.0292 466.852V489.783C41.5768 490.016 42.1344 490.232 42.7009 490.43V466.852C42.7009 466.415 42.3266 466.061 41.865 466.061Z" fill="#A8B7EF"/>
<path d="M45.0393 466.061C44.5777 466.061 44.2034 466.415 44.2034 466.852V490.908C44.7535 491.066 45.3106 491.209 45.8751 491.334V466.852C45.875 466.415 45.5008 466.061 45.0393 466.061V466.061Z" fill="#A8B7EF"/>
<path d="M48.2135 473.975C47.7519 473.975 47.3776 473.62 47.3776 473.184V466.852C47.3776 466.415 47.7518 466.061 48.2135 466.061C48.675 466.061 49.0493 466.415 49.0493 466.852V473.184C49.0493 473.62 48.6751 473.975 48.2135 473.975Z" fill="#A8B7EF"/>
<path d="M38.6908 461.528C38.2292 461.528 37.8549 461.174 37.8549 460.737V454.438C37.8549 454.001 38.2291 453.647 38.6908 453.647C39.1524 453.647 39.5266 454.001 39.5266 454.438V460.737C39.5265 461.174 39.1523 461.528 38.6908 461.528Z" fill="#A8B7EF"/>
<path d="M41.865 461.528C41.4035 461.528 41.0292 461.174 41.0292 460.737V454.438C41.0292 454.001 41.4033 453.647 41.865 453.647C42.3266 453.647 42.7009 454.001 42.7009 454.438V460.737C42.7008 461.174 42.3266 461.528 41.865 461.528Z" fill="#A8B7EF"/>
<path d="M45.0393 461.528C44.5777 461.528 44.2034 461.174 44.2034 460.737V454.438C44.2034 454.001 44.5776 453.647 45.0393 453.647C45.5008 453.647 45.8751 454.001 45.8751 454.438V460.737C45.875 461.174 45.5008 461.528 45.0393 461.528Z" fill="#A8B7EF"/>
<path d="M48.2136 461.528C47.752 461.528 47.3777 461.174 47.3777 460.737V454.438C47.3777 454.001 47.7519 453.647 48.2136 453.647C48.6752 453.647 49.0494 454.001 49.0494 454.438V460.737C49.0494 461.174 48.6752 461.528 48.2136 461.528Z" fill="#A8B7EF"/>
<path d="M48.2135 461.528C47.7519 461.528 47.3776 461.174 47.3776 460.737V454.438C47.3776 454.001 47.7518 453.647 48.2135 453.647C48.675 453.647 49.0493 454.001 49.0493 454.438V460.737C49.0493 461.174 48.6751 461.528 48.2135 461.528Z" fill="#A8B7EF"/>
<path d="M51.3879 473.975C50.9263 473.975 50.552 473.62 50.552 473.184V466.852C50.552 466.415 50.9262 466.061 51.3879 466.061C51.8495 466.061 52.2237 466.415 52.2237 466.852V473.184C52.2237 473.62 51.8494 473.975 51.3879 473.975V473.975Z" fill="#A8B7EF"/>
<path d="M38.8682 443.644H48.0362V451.553H38.8682V443.644Z" fill="#DAE2FE"/>
<path d="M42.6994 449.16V446.038C42.6994 444.716 43.8314 443.644 45.2279 443.644H38.8682V451.553H45.2279C43.8314 451.553 42.6994 450.481 42.6994 449.16V449.16Z" fill="#BEC8F7"/>
<path d="M48.2136 477.666V491.747C49.4508 491.912 50.7145 492 52 492C56.5893 492 60.9086 490.907 64.6848 488.983V477.666H48.2136Z" fill="#FFC839"/>
<path d="M54.1389 488.424V481.242C54.1389 479.267 55.8304 477.666 57.9171 477.666H48.2136V491.747C49.4508 491.912 50.7145 492 52 492C53.4714 492 54.915 491.887 56.3218 491.671C55.0321 491.103 54.1389 489.858 54.1389 488.424V488.424Z" fill="#FFB332"/>
<path d="M71.3766 465.418H61.5498C61.0882 465.418 60.7139 465.064 60.7139 464.627C60.7139 464.19 61.0881 463.836 61.5498 463.836H71.3766C71.8382 463.836 72.2124 464.19 72.2124 464.627C72.2123 465.064 71.8381 465.418 71.3766 465.418V465.418Z" fill="#73C3F9"/>
<path d="M71.3766 468.751H61.5498C61.0882 468.751 60.7139 468.397 60.7139 467.96C60.7139 467.523 61.0881 467.169 61.5498 467.169H71.3766C71.8382 467.169 72.2124 467.523 72.2124 467.96C72.2123 468.397 71.8381 468.751 71.3766 468.751V468.751Z" fill="#73C3F9"/>
<path d="M71.3766 472.084H61.5498C61.0882 472.084 60.7139 471.73 60.7139 471.293C60.7139 470.856 61.0881 470.502 61.5498 470.502H71.3766C71.8382 470.502 72.2124 470.856 72.2124 471.293C72.2124 471.73 71.8381 472.084 71.3766 472.084V472.084Z" fill="#73C3F9"/>
<path d="M71.3766 475.417H68.14C67.6785 475.417 67.3042 475.063 67.3042 474.626C67.3042 474.189 67.6784 473.835 68.14 473.835H71.3766C71.8382 473.835 72.2124 474.189 72.2124 474.626C72.2124 475.063 71.8381 475.417 71.3766 475.417Z" fill="#73C3F9"/>
<path d="M71.3766 478.75H68.14C67.6785 478.75 67.3042 478.396 67.3042 477.959C67.3042 477.522 67.6784 477.168 68.14 477.168H71.3766C71.8382 477.168 72.2124 477.522 72.2124 477.959C72.2124 478.396 71.8381 478.75 71.3766 478.75Z" fill="#73C3F9"/>
<path d="M71.3766 482.084H67.4715C67.0099 482.084 66.6356 481.729 66.6356 481.292C66.6356 480.856 67.0098 480.501 67.4715 480.501H71.3766C71.8383 480.501 72.2124 480.856 72.2124 481.292C72.2123 481.729 71.8382 482.084 71.3766 482.084Z" fill="#73C3F9"/>
<path d="M71.3766 483.834H67.4713C67.0098 483.834 66.6355 484.189 66.6355 484.626C66.6355 485.062 67.0097 485.417 67.4713 485.417H70.0118C70.5815 484.927 71.1275 484.413 71.6509 483.879C71.5648 483.851 71.4727 483.834 71.3766 483.834Z" fill="#73C3F9"/>
<path d="M75.1072 462.157C74.9866 462.157 74.8643 462.132 74.7483 462.08L57.4826 454.295C57.0657 454.107 56.889 453.635 57.0875 453.241C57.286 452.846 57.7849 452.679 58.2016 452.867L75.4673 460.652C75.8841 460.84 76.0609 461.312 75.8624 461.706C75.719 461.991 75.4194 462.157 75.1072 462.157Z" fill="#4F71B6"/>
<path d="M51.6878 482.539C51.2262 482.539 50.8519 482.185 50.8519 481.748V480.783C50.8519 480.347 51.2261 479.992 51.6878 479.992C52.1493 479.992 52.5236 480.346 52.5236 480.783V481.748C52.5236 482.185 52.1493 482.539 51.6878 482.539V482.539Z" fill="#FF9100"/>
<path d="M54.862 482.539C54.4005 482.539 54.0262 482.185 54.0262 481.748V480.783C54.0262 480.347 54.4004 479.992 54.862 479.992C55.3237 479.992 55.6979 480.346 55.6979 480.783V481.748C55.6979 482.185 55.3237 482.539 54.862 482.539Z" fill="#FF9100"/>
<path d="M58.0363 482.539C57.5748 482.539 57.2005 482.185 57.2005 481.748V480.783C57.2005 480.347 57.5747 479.992 58.0363 479.992C58.498 479.992 58.8722 480.346 58.8722 480.783V481.748C58.8722 482.185 58.498 482.539 58.0363 482.539Z" fill="#FF9100"/>
<path d="M61.2107 482.539C60.7492 482.539 60.3749 482.185 60.3749 481.748V480.783C60.3749 480.347 60.749 479.992 61.2107 479.992C61.6723 479.992 62.0466 480.346 62.0466 480.783V481.748C62.0465 482.185 61.6723 482.539 61.2107 482.539Z" fill="#FF9100"/>
<path d="M51.6878 486.631C51.2262 486.631 50.8519 486.277 50.8519 485.84V484.875C50.8519 484.438 51.2261 484.084 51.6878 484.084C52.1493 484.084 52.5236 484.438 52.5236 484.875V485.84C52.5236 486.277 52.1493 486.631 51.6878 486.631V486.631Z" fill="#FF9100"/>
<path d="M54.862 486.631C54.4005 486.631 54.0262 486.277 54.0262 485.84V484.875C54.0262 484.438 54.4004 484.084 54.862 484.084C55.3237 484.084 55.6979 484.438 55.6979 484.875V485.84C55.6979 486.277 55.3237 486.631 54.862 486.631Z" fill="#FF9100"/>
<path d="M58.0363 486.631C57.5748 486.631 57.2005 486.277 57.2005 485.84V484.875C57.2005 484.438 57.5747 484.084 58.0363 484.084C58.498 484.084 58.8722 484.438 58.8722 484.875V485.84C58.8722 486.277 58.498 486.631 58.0363 486.631Z" fill="#FF9100"/>
<path d="M61.2107 486.631C60.7492 486.631 60.3749 486.277 60.3749 485.84V484.875C60.3749 484.438 60.749 484.084 61.2107 484.084C61.6723 484.084 62.0466 484.438 62.0466 484.875V485.84C62.0465 486.277 61.6723 486.631 61.2107 486.631Z" fill="#FF9100"/>
<path d="M51.6878 490.723C51.2262 490.723 50.8519 490.369 50.8519 489.932V488.967C50.8519 488.531 51.2261 488.176 51.6878 488.176C52.1493 488.176 52.5236 488.53 52.5236 488.967V489.932C52.5236 490.369 52.1493 490.723 51.6878 490.723V490.723Z" fill="#FF9100"/>
<path d="M54.862 490.723C54.4005 490.723 54.0262 490.369 54.0262 489.932V488.967C54.0262 488.531 54.4004 488.176 54.862 488.176C55.3237 488.176 55.6979 488.53 55.6979 488.967V489.932C55.6979 490.369 55.3237 490.723 54.862 490.723Z" fill="#FF9100"/>
<path d="M58.0363 490.723C57.5748 490.723 57.2005 490.369 57.2005 489.932V488.967C57.2005 488.531 57.5747 488.176 58.0363 488.176C58.498 488.176 58.8722 488.53 58.8722 488.967V489.932C58.8722 490.369 58.498 490.723 58.0363 490.723Z" fill="#FF9100"/>
<path d="M61.2107 488.176C60.7492 488.176 60.3749 488.53 60.3749 488.967V489.932C60.3749 490.218 60.5358 490.468 60.776 490.607C61.1914 490.471 61.6021 490.325 62.0078 490.17C62.0329 490.095 62.0466 490.015 62.0466 489.932V488.967C62.0465 488.53 61.6723 488.176 61.2107 488.176V488.176Z" fill="#FF9100"/>
<path d="M64.6849 477.772H48.2136C47.3827 477.772 46.7092 477.134 46.7092 476.348C46.7092 475.561 47.3827 474.924 48.2136 474.924H64.6848C65.5158 474.924 66.1893 475.561 66.1893 476.348C66.1894 477.134 65.5159 477.772 64.6849 477.772Z" fill="#FFDD40"/>
<path d="M55.0438 476.348C55.0438 475.561 55.7173 474.924 56.5482 474.924H48.2136C47.3827 474.924 46.7092 475.561 46.7092 476.348C46.7092 477.134 47.3827 477.772 48.2136 477.772H56.5482C55.7173 477.772 55.0438 477.134 55.0438 476.348Z" fill="#FFC839"/>
<path d="M48.0362 444.435H38.8681C38.4066 444.435 38.0323 444.081 38.0323 443.644C38.0323 443.207 38.4065 442.853 38.8681 442.853H48.0362C48.4977 442.853 48.872 443.207 48.872 443.644C48.872 444.081 48.4977 444.435 48.0362 444.435Z" fill="#E9EFFF"/>
<path d="M52.2027 452.344H34.7016C34.2401 452.344 33.8658 451.99 33.8658 451.553C33.8658 451.116 34.24 450.762 34.7016 450.762H52.2027C52.6643 450.762 53.0386 451.116 53.0386 451.553C53.0386 451.989 52.6643 452.344 52.2027 452.344Z" fill="#E9EFFF"/>
<path d="M54.7308 464.112H32.1734C31.7118 464.112 31.3375 463.758 31.3375 463.321C31.3375 462.884 31.7117 462.53 32.1734 462.53H54.7308C55.1923 462.53 55.5666 462.884 55.5666 463.321C55.5666 463.758 55.1924 464.112 54.7308 464.112Z" fill="#E9EFFF"/>
<path d="M41.865 449.414C41.4035 449.414 41.0292 449.059 41.0292 448.622V446.399C41.0292 445.962 41.4033 445.608 41.865 445.608C42.3267 445.608 42.7009 445.962 42.7009 446.399V448.622C42.7009 449.059 42.3266 449.414 41.865 449.414Z" fill="#A8B7EF"/>
<path d="M45.0393 449.414C44.5777 449.414 44.2034 449.059 44.2034 448.622V446.399C44.2034 445.962 44.5776 445.608 45.0393 445.608C45.5009 445.608 45.8751 445.962 45.8751 446.399V448.622C45.8751 449.059 45.5008 449.414 45.0393 449.414Z" fill="#A8B7EF"/>
</g>
<rect x="840" y="408" width="57" height="15" fill="#42FF00"/>
<rect x="840" y="433" width="57" height="15" fill="#FF7A00"/>
<line x1="840" y1="392.5" x2="897" y2="392.5" stroke="#517FF3"/>
<line x1="840" y1="462.5" x2="897" y2="462.5" stroke="#FF7A00"/>
<line x1="840" y1="477.5" x2="897" y2="477.5" stroke="#42FF00"/>
<line x1="840" y1="374.5" x2="897" y2="374.5" stroke="#517FF3" stroke-dasharray="2 2"/>
<line x1="445.5" y1="10" x2="445.5" y2="52" stroke="#517FF3" stroke-dasharray="2 2"/>
<line x1="568.5" y1="10" x2="568.5" y2="52" stroke="#517FF3" stroke-dasharray="2 2"/>
<line x1="642.5" y1="-1" x2="642.5" y2="41" stroke="#517FF3" stroke-dasharray="2 2"/>
<line x1="740.5" y1="-1" x2="740.5" y2="41" stroke="#517FF3" stroke-dasharray="2 2"/>
<path d="M908.436 376.288V375.276H914V376.288H908.436ZM915.859 375.611C915.859 374.212 916.201 373.098 916.885 372.269C917.573 371.435 918.496 371.018 919.653 371.018C920.811 371.018 921.731 371.435 922.415 372.269C923.103 373.098 923.447 374.212 923.447 375.611C923.447 377.015 923.103 378.134 922.415 378.968C921.731 379.797 920.811 380.212 919.653 380.212C918.496 380.212 917.573 379.797 916.885 378.968C916.201 378.134 915.859 377.015 915.859 375.611ZM917.295 375.611C917.295 376.76 917.498 377.646 917.903 378.271C918.313 378.89 918.897 379.2 919.653 379.2C920.41 379.2 920.993 378.89 921.403 378.271C921.813 377.646 922.019 376.76 922.019 375.611C922.019 374.467 921.813 373.586 921.403 372.966C920.993 372.341 920.41 372.029 919.653 372.029C918.897 372.029 918.313 372.341 917.903 372.966C917.498 373.586 917.295 374.467 917.295 375.611ZM927.371 380L924.295 372.576H925.676L928.144 378.523L930.687 372.576H931.883L928.725 380H927.371ZM939.812 379.706C938.878 380.016 938.021 380.171 937.242 380.171C935.966 380.171 934.984 379.843 934.296 379.187C933.612 378.53 933.271 377.591 933.271 376.37C933.271 375.217 933.599 374.269 934.255 373.526C934.916 372.784 935.754 372.412 936.771 372.412C937.796 372.412 938.55 372.72 939.033 373.335C939.521 373.95 939.765 374.907 939.765 376.206V376.637H934.706C934.806 378.318 935.713 379.159 937.427 379.159C938.151 379.159 938.947 378.986 939.812 378.64V379.706ZM934.747 375.625H938.329V375.434C938.329 374.094 937.771 373.424 936.654 373.424C936.117 373.424 935.679 373.618 935.342 374.005C935.009 374.392 934.811 374.932 934.747 375.625ZM942.848 380V372.576H944.194V373.971C944.878 372.932 945.796 372.412 946.949 372.412C947.355 372.412 947.815 372.469 948.33 372.583V374.688H947.318V373.656C947.118 373.611 946.936 373.588 946.771 373.588C946.257 373.588 945.803 373.709 945.411 373.95C945.024 374.187 944.618 374.593 944.194 375.167V380H942.848ZM952.213 380V373.759H950.189V372.747H952.213V371.961C952.213 370.922 952.454 370.174 952.938 369.719C953.421 369.263 954.214 369.035 955.316 369.035C956.046 369.035 956.736 369.133 957.388 369.329V370.396C956.722 370.163 956.066 370.047 955.419 370.047C954.731 370.047 954.248 370.179 953.97 370.443C953.696 370.703 953.56 371.161 953.56 371.817V372.747H957.107V373.759H953.56V380H952.213ZM961.66 380V370.218H958.796V369.206H963.014V380H961.66ZM970.267 380.171C969.177 380.171 968.321 379.827 967.696 379.139C967.076 378.446 966.767 377.496 966.767 376.288C966.767 375.085 967.079 374.139 967.703 373.451C968.327 372.758 969.182 372.412 970.267 372.412C971.356 372.412 972.21 372.758 972.83 373.451C973.454 374.139 973.767 375.085 973.767 376.288C973.767 377.496 973.454 378.446 972.83 379.139C972.21 379.827 971.356 380.171 970.267 380.171ZM970.267 379.159C970.914 379.159 971.42 378.906 971.784 378.4C972.149 377.895 972.331 377.19 972.331 376.288C972.331 375.39 972.149 374.688 971.784 374.183C971.42 373.677 970.914 373.424 970.267 373.424C969.619 373.424 969.114 373.677 968.749 374.183C968.384 374.688 968.202 375.39 968.202 376.288C968.202 377.19 968.384 377.895 968.749 378.4C969.114 378.906 969.619 379.159 970.267 379.159ZM975.92 380L974.566 372.576H975.811L976.795 378.387H976.809L978.128 373.253H979.434L980.685 378.585H980.705L981.799 372.576H982.831L981.348 380H980.021L978.716 374.449H978.702L977.26 380H975.92Z" fill="white"/>
<path d="M908.436 396.288V395.276H914V396.288H908.436ZM922.34 391.435V392.604C921.351 392.221 920.471 392.029 919.701 392.029C918.484 392.029 917.876 392.439 917.876 393.26C917.876 393.592 917.99 393.861 918.218 394.066C918.446 394.267 918.867 394.474 919.482 394.688L920.344 394.989L921.164 395.27C922.436 395.716 923.071 396.473 923.071 397.539C923.071 398.35 922.745 399 922.094 399.487C921.447 399.97 920.578 400.212 919.489 400.212C918.733 400.212 917.755 400.05 916.557 399.727V398.394C917.751 398.931 918.742 399.2 919.53 399.2C920.196 399.2 920.727 399.07 921.123 398.811C921.52 398.546 921.718 398.193 921.718 397.751C921.718 397.414 921.599 397.147 921.362 396.951C921.13 396.755 920.647 396.523 919.913 396.254L919.011 395.926C918.113 395.593 917.489 395.251 917.138 394.9C916.791 394.549 916.618 394.082 916.618 393.499C916.618 392.711 916.885 392.1 917.418 391.667C917.956 391.234 918.71 391.018 919.681 391.018C920.469 391.018 921.355 391.157 922.34 391.435ZM931.404 399.993C930.73 400.112 930.078 400.171 929.449 400.171C928.351 400.171 927.604 399.975 927.207 399.583C926.811 399.187 926.612 398.439 926.612 397.341V393.759H924.76V392.747H926.612V391.147H927.966V392.747H931.254V393.759H927.966V397.56C927.966 397.983 927.991 398.275 928.041 398.435C928.096 398.594 928.21 398.733 928.383 398.852C928.693 399.057 929.144 399.159 929.736 399.159C930.297 399.159 930.853 399.095 931.404 398.968V399.993ZM934.412 400V392.576H935.759V393.971C936.442 392.932 937.361 392.412 938.514 392.412C938.919 392.412 939.38 392.469 939.895 392.583V394.688H938.883V393.656C938.682 393.611 938.5 393.588 938.336 393.588C937.821 393.588 937.368 393.709 936.976 393.95C936.588 394.187 936.183 394.593 935.759 395.167V400H934.412ZM947.934 392.576V400H946.587V398.605C945.967 399.649 945.122 400.171 944.051 400.171C942.647 400.171 941.945 399.332 941.945 397.655V392.576H943.292V397.286C943.292 397.869 943.381 398.284 943.559 398.53C943.736 398.772 944.039 398.893 944.468 398.893C945.142 398.893 945.849 398.405 946.587 397.43V392.576H947.934ZM956.718 399.761C955.92 400.034 955.125 400.171 954.332 400.171C953.038 400.171 952.04 399.834 951.338 399.159C950.641 398.485 950.292 397.528 950.292 396.288C950.292 395.071 950.636 394.121 951.324 393.438C952.017 392.754 952.979 392.412 954.209 392.412C954.993 392.412 955.784 392.531 956.581 392.768V393.896C955.701 393.581 954.952 393.424 954.332 393.424C953.521 393.424 952.883 393.679 952.418 394.189C951.958 394.7 951.728 395.399 951.728 396.288C951.728 397.186 951.974 397.89 952.466 398.4C952.963 398.906 953.646 399.159 954.517 399.159C955.168 399.159 955.902 399.007 956.718 398.701V399.761ZM965.146 399.993C964.472 400.112 963.82 400.171 963.191 400.171C962.093 400.171 961.346 399.975 960.949 399.583C960.553 399.187 960.354 398.439 960.354 397.341V393.759H958.502V392.747H960.354V391.147H961.708V392.747H964.996V393.759H961.708V397.56C961.708 397.983 961.733 398.275 961.783 398.435C961.838 398.594 961.952 398.733 962.125 398.852C962.435 399.057 962.886 399.159 963.479 399.159C964.039 399.159 964.595 399.095 965.146 398.968V399.993ZM973.24 392.576V400H971.894V398.605C971.274 399.649 970.428 400.171 969.357 400.171C967.954 400.171 967.252 399.332 967.252 397.655V392.576H968.599V397.286C968.599 397.869 968.688 398.284 968.865 398.53C969.043 398.772 969.346 398.893 969.774 398.893C970.449 398.893 971.155 398.405 971.894 397.43V392.576H973.24ZM976.59 400V392.576H977.937V393.971C978.62 392.932 979.538 392.412 980.691 392.412C981.097 392.412 981.557 392.469 982.072 392.583V394.688H981.061V393.656C980.86 393.611 980.678 393.588 980.514 393.588C979.999 393.588 979.545 393.709 979.153 393.95C978.766 394.187 978.36 394.593 977.937 395.167V400H976.59ZM990.426 399.706C989.492 400.016 988.635 400.171 987.855 400.171C986.579 400.171 985.597 399.843 984.909 399.187C984.226 398.53 983.884 397.591 983.884 396.37C983.884 395.217 984.212 394.269 984.868 393.526C985.529 392.784 986.368 392.412 987.384 392.412C988.409 392.412 989.163 392.72 989.646 393.335C990.134 393.95 990.378 394.907 990.378 396.206V396.637H985.319C985.42 398.318 986.326 399.159 988.04 399.159C988.765 399.159 989.56 398.986 990.426 398.64V399.706ZM985.36 395.625H988.942V395.434C988.942 394.094 988.384 393.424 987.268 393.424C986.73 393.424 986.292 393.618 985.955 394.005C985.622 394.392 985.424 394.932 985.36 395.625ZM992.634 399.699V398.482C993.677 398.934 994.58 399.159 995.341 399.159C995.888 399.159 996.339 399.05 996.694 398.831C997.054 398.608 997.234 398.327 997.234 397.99C997.234 397.557 996.808 397.204 995.956 396.931L994.514 396.459C993.388 396.094 992.825 395.452 992.825 394.531C992.825 393.857 993.078 393.335 993.584 392.966C994.094 392.597 994.814 392.412 995.744 392.412C996.441 392.412 997.25 392.519 998.171 392.733V393.827C997.282 393.558 996.471 393.424 995.737 393.424C995.245 393.424 994.851 393.513 994.555 393.69C994.263 393.868 994.117 394.107 994.117 394.408C994.117 394.777 994.452 395.078 995.122 395.311L996.824 395.905C997.444 396.124 997.888 396.386 998.157 396.691C998.431 396.992 998.567 397.384 998.567 397.867C998.567 398.569 998.278 399.13 997.699 399.549C997.12 399.964 996.343 400.171 995.368 400.171C994.516 400.171 993.604 400.014 992.634 399.699Z" fill="white"/>
<path d="M908.436 414.288V413.276H914V414.288H908.436ZM916.994 418V409.229H919.845C920.861 409.229 921.586 409.321 922.019 409.503C922.903 409.886 923.345 410.624 923.345 411.718C923.345 412.638 922.987 413.361 922.271 413.885C921.561 414.409 920.578 414.671 919.325 414.671H918.341V418H916.994ZM918.341 413.659H919.182C921.005 413.659 921.916 413.021 921.916 411.745C921.916 411.207 921.743 410.822 921.396 410.59C921.055 410.357 920.483 410.241 919.681 410.241H918.341V413.659ZM925.977 418V410.576H927.323V411.971C928.007 410.932 928.925 410.412 930.078 410.412C930.484 410.412 930.944 410.469 931.459 410.583V412.688H930.447V411.656C930.247 411.611 930.064 411.588 929.9 411.588C929.385 411.588 928.932 411.709 928.54 411.95C928.153 412.187 927.747 412.593 927.323 413.167V418H925.977ZM936.189 418V411.588H933.489V410.576H937.536V418H936.189ZM936.019 408.895V407.206H937.707V408.895H936.019ZM941.378 418V410.576H942.561V411.971C943.139 410.932 943.691 410.412 944.215 410.412C944.885 410.412 945.315 410.932 945.507 411.971H945.555C946.029 410.932 946.585 410.412 947.223 410.412C947.688 410.412 948.025 410.583 948.234 410.925C948.444 411.262 948.549 411.809 948.549 412.565V418H947.366V412.62C947.366 412.215 947.337 411.939 947.277 411.793C947.218 411.647 947.106 411.574 946.942 411.574C946.514 411.574 946.051 412.119 945.555 413.208V418H944.372V412.866C944.372 412.356 944.342 412.016 944.283 411.848C944.224 411.674 944.105 411.588 943.928 411.588C943.736 411.588 943.508 411.745 943.244 412.06C942.984 412.369 942.757 412.757 942.561 413.222V418H941.378ZM954.886 417.104C954.07 417.788 953.257 418.13 952.445 418.13C951.766 418.13 951.206 417.936 950.764 417.549C950.326 417.161 950.107 416.672 950.107 416.079C950.107 415.309 950.449 414.689 951.133 414.22C951.816 413.75 952.719 413.516 953.84 413.516H954.674V412.88C954.674 412.356 954.558 411.982 954.325 411.759C954.093 411.535 953.708 411.424 953.17 411.424C952.391 411.424 951.584 411.643 950.75 412.08V410.925C951.707 410.583 952.605 410.412 953.443 410.412C954.387 410.412 955.052 410.599 955.439 410.973C955.831 411.346 956.027 411.991 956.027 412.907V416.018C956.027 416.464 956.075 416.77 956.171 416.934C956.267 417.093 956.447 417.173 956.711 417.173C956.798 417.173 956.939 417.15 957.135 417.104L957.258 417.911C956.807 418.057 956.465 418.13 956.232 418.13C955.567 418.13 955.118 417.788 954.886 417.104ZM954.674 416.229V414.356H954.271C952.425 414.356 951.502 414.855 951.502 415.854C951.502 416.214 951.62 416.503 951.857 416.722C952.094 416.94 952.409 417.05 952.801 417.05C953.389 417.05 954.013 416.776 954.674 416.229ZM959.719 418V410.576H961.065V411.971C961.749 410.932 962.667 410.412 963.82 410.412C964.226 410.412 964.686 410.469 965.201 410.583V412.688H964.189V411.656C963.989 411.611 963.807 411.588 963.643 411.588C963.128 411.588 962.674 411.709 962.282 411.95C961.895 412.187 961.489 412.593 961.065 413.167V418H959.719ZM967.02 420.7V419.688H967.566C968.077 419.688 968.448 419.606 968.681 419.442C968.913 419.278 969.157 418.925 969.412 418.383L969.747 417.672L966.63 410.576H968.024L970.451 416.134L972.898 410.576H974.108L970.369 418.95C970.077 419.602 969.729 420.055 969.323 420.311C968.918 420.57 968.341 420.7 967.594 420.7H967.02ZM984.198 417.699V416.482C985.242 416.934 986.144 417.159 986.905 417.159C987.452 417.159 987.903 417.05 988.259 416.831C988.619 416.608 988.799 416.327 988.799 415.99C988.799 415.557 988.373 415.204 987.521 414.931L986.078 414.459C984.952 414.094 984.39 413.452 984.39 412.531C984.39 411.857 984.643 411.335 985.148 410.966C985.659 410.597 986.379 410.412 987.309 410.412C988.006 410.412 988.815 410.519 989.735 410.733V411.827C988.847 411.558 988.035 411.424 987.302 411.424C986.81 411.424 986.415 411.513 986.119 411.69C985.827 411.868 985.682 412.107 985.682 412.408C985.682 412.777 986.017 413.078 986.687 413.311L988.389 413.905C989.008 414.124 989.453 414.386 989.722 414.691C989.995 414.992 990.132 415.384 990.132 415.867C990.132 416.569 989.842 417.13 989.264 417.549C988.685 417.964 987.908 418.171 986.933 418.171C986.08 418.171 985.169 418.014 984.198 417.699ZM998.547 410.576V418H997.2V416.605C996.58 417.649 995.735 418.171 994.664 418.171C993.26 418.171 992.559 417.332 992.559 415.655V410.576H993.905V415.286C993.905 415.869 993.994 416.284 994.172 416.53C994.35 416.772 994.653 416.893 995.081 416.893C995.756 416.893 996.462 416.405 997.2 415.43V410.576H998.547ZM1001.01 420.7V410.576H1002.36V411.971C1003.01 410.932 1003.82 410.412 1004.79 410.412C1005.63 410.412 1006.29 410.738 1006.78 411.39C1007.26 412.037 1007.51 412.921 1007.51 414.042C1007.51 415.272 1007.22 416.268 1006.65 417.029C1006.07 417.79 1005.32 418.171 1004.39 418.171C1003.59 418.171 1002.92 417.834 1002.36 417.159V420.7H1001.01ZM1002.36 416.147C1002.99 416.822 1003.6 417.159 1004.21 417.159C1004.8 417.159 1005.26 416.899 1005.58 416.38C1005.91 415.856 1006.07 415.124 1006.07 414.186C1006.07 412.436 1005.55 411.561 1004.51 411.561C1003.75 411.561 1003.03 412.035 1002.36 412.982V416.147ZM1009.45 420.7V410.576H1010.8V411.971C1011.45 410.932 1012.26 410.412 1013.22 410.412C1014.07 410.412 1014.73 410.738 1015.21 411.39C1015.7 412.037 1015.94 412.921 1015.94 414.042C1015.94 415.272 1015.66 416.268 1015.08 417.029C1014.51 417.79 1013.76 418.171 1012.83 418.171C1012.03 418.171 1011.35 417.834 1010.8 417.159V420.7H1009.45ZM1010.8 416.147C1011.42 416.822 1012.04 417.159 1012.64 417.159C1013.24 417.159 1013.69 416.899 1014.02 416.38C1014.34 415.856 1014.51 415.124 1014.51 414.186C1014.51 412.436 1013.99 411.561 1012.94 411.561C1012.18 411.561 1011.47 412.035 1010.8 412.982V416.147ZM1020.71 418V408.218H1017.84V407.206H1022.06V418H1020.71ZM1026.07 420.7V419.688H1026.62C1027.13 419.688 1027.5 419.606 1027.73 419.442C1027.96 419.278 1028.21 418.925 1028.46 418.383L1028.8 417.672L1025.68 410.576H1027.07L1029.5 416.134L1031.95 410.576H1033.16L1029.42 418.95C1029.13 419.602 1028.78 420.055 1028.37 420.311C1027.97 420.57 1027.39 420.7 1026.64 420.7H1026.07Z" fill="white"/>
<path d="M908.436 439.288V438.276H914V439.288H908.436ZM922.34 434.435V435.604C921.351 435.221 920.471 435.029 919.701 435.029C918.484 435.029 917.876 435.439 917.876 436.26C917.876 436.592 917.99 436.861 918.218 437.066C918.446 437.267 918.867 437.474 919.482 437.688L920.344 437.989L921.164 438.27C922.436 438.716 923.071 439.473 923.071 440.539C923.071 441.35 922.745 442 922.094 442.487C921.447 442.97 920.578 443.212 919.489 443.212C918.733 443.212 917.755 443.05 916.557 442.727V441.394C917.751 441.931 918.742 442.2 919.53 442.2C920.196 442.2 920.727 442.07 921.123 441.811C921.52 441.546 921.718 441.193 921.718 440.751C921.718 440.414 921.599 440.147 921.362 439.951C921.13 439.755 920.647 439.523 919.913 439.254L919.011 438.926C918.113 438.593 917.489 438.251 917.138 437.9C916.791 437.549 916.618 437.082 916.618 436.499C916.618 435.711 916.885 435.1 917.418 434.667C917.956 434.234 918.71 434.018 919.681 434.018C920.469 434.018 921.355 434.157 922.34 434.435ZM931.377 442.706C930.443 443.016 929.586 443.171 928.807 443.171C927.531 443.171 926.549 442.843 925.86 442.187C925.177 441.53 924.835 440.591 924.835 439.37C924.835 438.217 925.163 437.269 925.819 436.526C926.48 435.784 927.319 435.412 928.335 435.412C929.36 435.412 930.115 435.72 930.598 436.335C931.085 436.95 931.329 437.907 931.329 439.206V439.637H926.271C926.371 441.318 927.278 442.159 928.991 442.159C929.716 442.159 930.511 441.986 931.377 441.64V442.706ZM926.312 438.625H929.894V438.434C929.894 437.094 929.335 436.424 928.219 436.424C927.681 436.424 927.243 436.618 926.906 437.005C926.574 437.392 926.375 437.932 926.312 438.625ZM939.847 442.761C939.049 443.034 938.254 443.171 937.461 443.171C936.167 443.171 935.169 442.834 934.467 442.159C933.77 441.485 933.421 440.528 933.421 439.288C933.421 438.071 933.765 437.121 934.453 436.438C935.146 435.754 936.107 435.412 937.338 435.412C938.122 435.412 938.912 435.531 939.71 435.768V436.896C938.83 436.581 938.081 436.424 937.461 436.424C936.65 436.424 936.012 436.679 935.547 437.189C935.087 437.7 934.856 438.399 934.856 439.288C934.856 440.186 935.103 440.89 935.595 441.4C936.091 441.906 936.775 442.159 937.646 442.159C938.297 442.159 939.031 442.007 939.847 441.701V442.761ZM944.96 443.171C943.871 443.171 943.014 442.827 942.39 442.139C941.77 441.446 941.46 440.496 941.46 439.288C941.46 438.085 941.772 437.139 942.396 436.451C943.021 435.758 943.875 435.412 944.96 435.412C946.049 435.412 946.904 435.758 947.523 436.451C948.148 437.139 948.46 438.085 948.46 439.288C948.46 440.496 948.148 441.446 947.523 442.139C946.904 442.827 946.049 443.171 944.96 443.171ZM944.96 442.159C945.607 442.159 946.113 441.906 946.478 441.4C946.842 440.895 947.024 440.19 947.024 439.288C947.024 438.39 946.842 437.688 946.478 437.183C946.113 436.677 945.607 436.424 944.96 436.424C944.313 436.424 943.807 436.677 943.442 437.183C943.078 437.688 942.896 438.39 942.896 439.288C942.896 440.19 943.078 440.895 943.442 441.4C943.807 441.906 944.313 442.159 944.96 442.159ZM950.422 443V435.576H951.769V436.971C952.388 435.932 953.231 435.412 954.298 435.412C955.706 435.412 956.41 436.248 956.41 437.921V443H955.063V438.29C955.063 437.711 954.972 437.301 954.79 437.06C954.612 436.813 954.312 436.69 953.888 436.69C953.213 436.69 952.507 437.176 951.769 438.146V443H950.422ZM963.629 443V441.605C962.973 442.649 962.161 443.171 961.195 443.171C960.357 443.171 959.694 442.845 959.206 442.193C958.723 441.542 958.481 440.655 958.481 439.534C958.481 438.304 958.769 437.31 959.343 436.554C959.917 435.793 960.669 435.412 961.599 435.412C962.396 435.412 963.073 435.749 963.629 436.424V432.206H964.976V443H963.629ZM963.629 437.436C963 436.761 962.385 436.424 961.783 436.424C961.191 436.424 960.73 436.684 960.402 437.203C960.079 437.723 959.917 438.454 959.917 439.397C959.917 441.143 960.439 442.016 961.482 442.016C962.243 442.016 962.959 441.542 963.629 440.594V437.436ZM971.757 442.104C970.941 442.788 970.128 443.13 969.316 443.13C968.637 443.13 968.077 442.936 967.635 442.549C967.197 442.161 966.979 441.672 966.979 441.079C966.979 440.309 967.32 439.689 968.004 439.22C968.688 438.75 969.59 438.516 970.711 438.516H971.545V437.88C971.545 437.356 971.429 436.982 971.196 436.759C970.964 436.535 970.579 436.424 970.041 436.424C969.262 436.424 968.455 436.643 967.621 437.08V435.925C968.578 435.583 969.476 435.412 970.314 435.412C971.258 435.412 971.923 435.599 972.311 435.973C972.702 436.346 972.898 436.991 972.898 437.907V441.018C972.898 441.464 972.946 441.77 973.042 441.934C973.138 442.093 973.318 442.173 973.582 442.173C973.669 442.173 973.81 442.15 974.006 442.104L974.129 442.911C973.678 443.057 973.336 443.13 973.104 443.13C972.438 443.13 971.989 442.788 971.757 442.104ZM971.545 441.229V439.356H971.142C969.296 439.356 968.373 439.855 968.373 440.854C968.373 441.214 968.492 441.503 968.729 441.722C968.965 441.94 969.28 442.05 969.672 442.05C970.26 442.05 970.884 441.776 971.545 441.229ZM976.59 443V435.576H977.937V436.971C978.62 435.932 979.538 435.412 980.691 435.412C981.097 435.412 981.557 435.469 982.072 435.583V437.688H981.061V436.656C980.86 436.611 980.678 436.588 980.514 436.588C979.999 436.588 979.545 436.709 979.153 436.95C978.766 437.187 978.36 437.593 977.937 438.167V443H976.59ZM983.891 445.7V444.688H984.438C984.948 444.688 985.319 444.606 985.552 444.442C985.784 444.278 986.028 443.925 986.283 443.383L986.618 442.672L983.501 435.576H984.896L987.322 441.134L989.77 435.576H990.979L987.24 443.95C986.949 444.602 986.6 445.055 986.194 445.311C985.789 445.57 985.212 445.7 984.465 445.7H983.891ZM1001.07 442.699V441.482C1002.11 441.934 1003.02 442.159 1003.78 442.159C1004.32 442.159 1004.77 442.05 1005.13 441.831C1005.49 441.608 1005.67 441.327 1005.67 440.99C1005.67 440.557 1005.24 440.204 1004.39 439.931L1002.95 439.459C1001.82 439.094 1001.26 438.452 1001.26 437.531C1001.26 436.857 1001.51 436.335 1002.02 435.966C1002.53 435.597 1003.25 435.412 1004.18 435.412C1004.88 435.412 1005.69 435.519 1006.61 435.733V436.827C1005.72 436.558 1004.91 436.424 1004.17 436.424C1003.68 436.424 1003.29 436.513 1002.99 436.69C1002.7 436.868 1002.55 437.107 1002.55 437.408C1002.55 437.777 1002.89 438.078 1003.56 438.311L1005.26 438.905C1005.88 439.124 1006.32 439.386 1006.59 439.691C1006.87 439.992 1007 440.384 1007 440.867C1007 441.569 1006.71 442.13 1006.13 442.549C1005.56 442.964 1004.78 443.171 1003.8 443.171C1002.95 443.171 1002.04 443.014 1001.07 442.699ZM1015.42 435.576V443H1014.07V441.605C1013.45 442.649 1012.61 443.171 1011.54 443.171C1010.13 443.171 1009.43 442.332 1009.43 440.655V435.576H1010.78V440.286C1010.78 440.869 1010.87 441.284 1011.04 441.53C1011.22 441.772 1011.52 441.893 1011.95 441.893C1012.63 441.893 1013.33 441.405 1014.07 440.43V435.576H1015.42ZM1017.89 445.7V435.576H1019.23V436.971C1019.88 435.932 1020.69 435.412 1021.66 435.412C1022.5 435.412 1023.17 435.738 1023.65 436.39C1024.14 437.037 1024.38 437.921 1024.38 439.042C1024.38 440.272 1024.09 441.268 1023.52 442.029C1022.94 442.79 1022.19 443.171 1021.26 443.171C1020.47 443.171 1019.79 442.834 1019.23 442.159V445.7H1017.89ZM1019.23 441.147C1019.86 441.822 1020.47 442.159 1021.08 442.159C1021.67 442.159 1022.13 441.899 1022.45 441.38C1022.78 440.856 1022.94 440.124 1022.94 439.186C1022.94 437.436 1022.42 436.561 1021.38 436.561C1020.62 436.561 1019.9 437.035 1019.23 437.982V441.147ZM1026.32 445.7V435.576H1027.67V436.971C1028.32 435.932 1029.13 435.412 1030.09 435.412C1030.94 435.412 1031.6 435.738 1032.08 436.39C1032.57 437.037 1032.82 437.921 1032.82 439.042C1032.82 440.272 1032.53 441.268 1031.95 442.029C1031.38 442.79 1030.63 443.171 1029.7 443.171C1028.9 443.171 1028.22 442.834 1027.67 442.159V445.7H1026.32ZM1027.67 441.147C1028.29 441.822 1028.91 442.159 1029.51 442.159C1030.11 442.159 1030.56 441.899 1030.89 441.38C1031.22 440.856 1031.38 440.124 1031.38 439.186C1031.38 437.436 1030.86 436.561 1029.81 436.561C1029.05 436.561 1028.34 437.035 1027.67 437.982V441.147ZM1037.58 443V433.218H1034.72V432.206H1038.93V443H1037.58ZM1042.94 445.7V444.688H1043.49C1044 444.688 1044.37 444.606 1044.6 444.442C1044.83 444.278 1045.08 443.925 1045.33 443.383L1045.67 442.672L1042.55 435.576H1043.94L1046.37 441.134L1048.82 435.576H1050.03L1046.29 443.95C1046 444.602 1045.65 445.055 1045.24 445.311C1044.84 445.57 1044.26 445.7 1043.51 445.7H1042.94Z" fill="white"/>
<path d="M908.436 461.288V460.276H914V461.288H908.436ZM922.34 456.435V457.604C921.351 457.221 920.471 457.029 919.701 457.029C918.484 457.029 917.876 457.439 917.876 458.26C917.876 458.592 917.99 458.861 918.218 459.066C918.446 459.267 918.867 459.474 919.482 459.688L920.344 459.989L921.164 460.27C922.436 460.716 923.071 461.473 923.071 462.539C923.071 463.35 922.745 464 922.094 464.487C921.447 464.97 920.578 465.212 919.489 465.212C918.733 465.212 917.755 465.05 916.557 464.727V463.394C917.751 463.931 918.742 464.2 919.53 464.2C920.196 464.2 920.727 464.07 921.123 463.811C921.52 463.546 921.718 463.193 921.718 462.751C921.718 462.414 921.599 462.147 921.362 461.951C921.13 461.755 920.647 461.523 919.913 461.254L919.011 460.926C918.113 460.593 917.489 460.251 917.138 459.9C916.791 459.549 916.618 459.082 916.618 458.499C916.618 457.711 916.885 457.1 917.418 456.667C917.956 456.234 918.71 456.018 919.681 456.018C920.469 456.018 921.355 456.157 922.34 456.435ZM931.377 464.706C930.443 465.016 929.586 465.171 928.807 465.171C927.531 465.171 926.549 464.843 925.86 464.187C925.177 463.53 924.835 462.591 924.835 461.37C924.835 460.217 925.163 459.269 925.819 458.526C926.48 457.784 927.319 457.412 928.335 457.412C929.36 457.412 930.115 457.72 930.598 458.335C931.085 458.95 931.329 459.907 931.329 461.206V461.637H926.271C926.371 463.318 927.278 464.159 928.991 464.159C929.716 464.159 930.511 463.986 931.377 463.64V464.706ZM926.312 460.625H929.894V460.434C929.894 459.094 929.335 458.424 928.219 458.424C927.681 458.424 927.243 458.618 926.906 459.005C926.574 459.392 926.375 459.932 926.312 460.625ZM939.847 464.761C939.049 465.034 938.254 465.171 937.461 465.171C936.167 465.171 935.169 464.834 934.467 464.159C933.77 463.485 933.421 462.528 933.421 461.288C933.421 460.071 933.765 459.121 934.453 458.438C935.146 457.754 936.107 457.412 937.338 457.412C938.122 457.412 938.912 457.531 939.71 457.768V458.896C938.83 458.581 938.081 458.424 937.461 458.424C936.65 458.424 936.012 458.679 935.547 459.189C935.087 459.7 934.856 460.399 934.856 461.288C934.856 462.186 935.103 462.89 935.595 463.4C936.091 463.906 936.775 464.159 937.646 464.159C938.297 464.159 939.031 464.007 939.847 463.701V464.761ZM944.96 465.171C943.871 465.171 943.014 464.827 942.39 464.139C941.77 463.446 941.46 462.496 941.46 461.288C941.46 460.085 941.772 459.139 942.396 458.451C943.021 457.758 943.875 457.412 944.96 457.412C946.049 457.412 946.904 457.758 947.523 458.451C948.148 459.139 948.46 460.085 948.46 461.288C948.46 462.496 948.148 463.446 947.523 464.139C946.904 464.827 946.049 465.171 944.96 465.171ZM944.96 464.159C945.607 464.159 946.113 463.906 946.478 463.4C946.842 462.895 947.024 462.19 947.024 461.288C947.024 460.39 946.842 459.688 946.478 459.183C946.113 458.677 945.607 458.424 944.96 458.424C944.313 458.424 943.807 458.677 943.442 459.183C943.078 459.688 942.896 460.39 942.896 461.288C942.896 462.19 943.078 462.895 943.442 463.4C943.807 463.906 944.313 464.159 944.96 464.159ZM950.422 465V457.576H951.769V458.971C952.388 457.932 953.231 457.412 954.298 457.412C955.706 457.412 956.41 458.248 956.41 459.921V465H955.063V460.29C955.063 459.711 954.972 459.301 954.79 459.06C954.612 458.813 954.312 458.69 953.888 458.69C953.213 458.69 952.507 459.176 951.769 460.146V465H950.422ZM963.629 465V463.605C962.973 464.649 962.161 465.171 961.195 465.171C960.357 465.171 959.694 464.845 959.206 464.193C958.723 463.542 958.481 462.655 958.481 461.534C958.481 460.304 958.769 459.31 959.343 458.554C959.917 457.793 960.669 457.412 961.599 457.412C962.396 457.412 963.073 457.749 963.629 458.424V454.206H964.976V465H963.629ZM963.629 459.436C963 458.761 962.385 458.424 961.783 458.424C961.191 458.424 960.73 458.684 960.402 459.203C960.079 459.723 959.917 460.454 959.917 461.397C959.917 463.143 960.439 464.016 961.482 464.016C962.243 464.016 962.959 463.542 963.629 462.594V459.436ZM971.757 464.104C970.941 464.788 970.128 465.13 969.316 465.13C968.637 465.13 968.077 464.936 967.635 464.549C967.197 464.161 966.979 463.672 966.979 463.079C966.979 462.309 967.32 461.689 968.004 461.22C968.688 460.75 969.59 460.516 970.711 460.516H971.545V459.88C971.545 459.356 971.429 458.982 971.196 458.759C970.964 458.535 970.579 458.424 970.041 458.424C969.262 458.424 968.455 458.643 967.621 459.08V457.925C968.578 457.583 969.476 457.412 970.314 457.412C971.258 457.412 971.923 457.599 972.311 457.973C972.702 458.346 972.898 458.991 972.898 459.907V463.018C972.898 463.464 972.946 463.77 973.042 463.934C973.138 464.093 973.318 464.173 973.582 464.173C973.669 464.173 973.81 464.15 974.006 464.104L974.129 464.911C973.678 465.057 973.336 465.13 973.104 465.13C972.438 465.13 971.989 464.788 971.757 464.104ZM971.545 463.229V461.356H971.142C969.296 461.356 968.373 461.855 968.373 462.854C968.373 463.214 968.492 463.503 968.729 463.722C968.965 463.94 969.28 464.05 969.672 464.05C970.26 464.05 970.884 463.776 971.545 463.229ZM976.59 465V457.576H977.937V458.971C978.62 457.932 979.538 457.412 980.691 457.412C981.097 457.412 981.557 457.469 982.072 457.583V459.688H981.061V458.656C980.86 458.611 980.678 458.588 980.514 458.588C979.999 458.588 979.545 458.709 979.153 458.95C978.766 459.187 978.36 459.593 977.937 460.167V465H976.59ZM983.891 467.7V466.688H984.438C984.948 466.688 985.319 466.606 985.552 466.442C985.784 466.278 986.028 465.925 986.283 465.383L986.618 464.672L983.501 457.576H984.896L987.322 463.134L989.77 457.576H990.979L987.24 465.95C986.949 466.602 986.6 467.055 986.194 467.311C985.789 467.57 985.212 467.7 984.465 467.7H983.891ZM1007.33 464.761C1006.53 465.034 1005.74 465.171 1004.95 465.171C1003.65 465.171 1002.65 464.834 1001.95 464.159C1001.25 463.485 1000.91 462.528 1000.91 461.288C1000.91 460.071 1001.25 459.121 1001.94 458.438C1002.63 457.754 1003.59 457.412 1004.82 457.412C1005.61 457.412 1006.4 457.531 1007.19 457.768V458.896C1006.31 458.581 1005.57 458.424 1004.95 458.424C1004.13 458.424 1003.5 458.679 1003.03 459.189C1002.57 459.7 1002.34 460.399 1002.34 461.288C1002.34 462.186 1002.59 462.89 1003.08 463.4C1003.58 463.906 1004.26 464.159 1005.13 464.159C1005.78 464.159 1006.52 464.007 1007.33 463.701V464.761ZM1012.44 465.171C1011.36 465.171 1010.5 464.827 1009.87 464.139C1009.25 463.446 1008.94 462.496 1008.94 461.288C1008.94 460.085 1009.26 459.139 1009.88 458.451C1010.51 457.758 1011.36 457.412 1012.44 457.412C1013.53 457.412 1014.39 457.758 1015.01 458.451C1015.63 459.139 1015.94 460.085 1015.94 461.288C1015.94 462.496 1015.63 463.446 1015.01 464.139C1014.39 464.827 1013.53 465.171 1012.44 465.171ZM1012.44 464.159C1013.09 464.159 1013.6 463.906 1013.96 463.4C1014.33 462.895 1014.51 462.19 1014.51 461.288C1014.51 460.39 1014.33 459.688 1013.96 459.183C1013.6 458.677 1013.09 458.424 1012.44 458.424C1011.8 458.424 1011.29 458.677 1010.93 459.183C1010.56 459.688 1010.38 460.39 1010.38 461.288C1010.38 462.19 1010.56 462.895 1010.93 463.4C1011.29 463.906 1011.8 464.159 1012.44 464.159ZM1017.91 465V457.576H1019.25V458.971C1019.87 457.932 1020.72 457.412 1021.78 457.412C1023.19 457.412 1023.89 458.248 1023.89 459.921V465H1022.55V460.29C1022.55 459.711 1022.46 459.301 1022.27 459.06C1022.1 458.813 1021.8 458.69 1021.37 458.69C1020.7 458.69 1019.99 459.176 1019.25 460.146V465H1017.91ZM1028.3 465V462.977H1030.33V465H1028.3Z" fill="white"/>
<path d="M908.436 461.288V460.276H914V461.288H908.436ZM922.34 456.435V457.604C921.351 457.221 920.471 457.029 919.701 457.029C918.484 457.029 917.876 457.439 917.876 458.26C917.876 458.592 917.99 458.861 918.218 459.066C918.446 459.267 918.867 459.474 919.482 459.688L920.344 459.989L921.164 460.27C922.436 460.716 923.071 461.473 923.071 462.539C923.071 463.35 922.745 464 922.094 464.487C921.447 464.97 920.578 465.212 919.489 465.212C918.733 465.212 917.755 465.05 916.557 464.727V463.394C917.751 463.931 918.742 464.2 919.53 464.2C920.196 464.2 920.727 464.07 921.123 463.811C921.52 463.546 921.718 463.193 921.718 462.751C921.718 462.414 921.599 462.147 921.362 461.951C921.13 461.755 920.647 461.523 919.913 461.254L919.011 460.926C918.113 460.593 917.489 460.251 917.138 459.9C916.791 459.549 916.618 459.082 916.618 458.499C916.618 457.711 916.885 457.1 917.418 456.667C917.956 456.234 918.71 456.018 919.681 456.018C920.469 456.018 921.355 456.157 922.34 456.435ZM931.377 464.706C930.443 465.016 929.586 465.171 928.807 465.171C927.531 465.171 926.549 464.843 925.86 464.187C925.177 463.53 924.835 462.591 924.835 461.37C924.835 460.217 925.163 459.269 925.819 458.526C926.48 457.784 927.319 457.412 928.335 457.412C929.36 457.412 930.115 457.72 930.598 458.335C931.085 458.95 931.329 459.907 931.329 461.206V461.637H926.271C926.371 463.318 927.278 464.159 928.991 464.159C929.716 464.159 930.511 463.986 931.377 463.64V464.706ZM926.312 460.625H929.894V460.434C929.894 459.094 929.335 458.424 928.219 458.424C927.681 458.424 927.243 458.618 926.906 459.005C926.574 459.392 926.375 459.932 926.312 460.625ZM939.847 464.761C939.049 465.034 938.254 465.171 937.461 465.171C936.167 465.171 935.169 464.834 934.467 464.159C933.77 463.485 933.421 462.528 933.421 461.288C933.421 460.071 933.765 459.121 934.453 458.438C935.146 457.754 936.107 457.412 937.338 457.412C938.122 457.412 938.912 457.531 939.71 457.768V458.896C938.83 458.581 938.081 458.424 937.461 458.424C936.65 458.424 936.012 458.679 935.547 459.189C935.087 459.7 934.856 460.399 934.856 461.288C934.856 462.186 935.103 462.89 935.595 463.4C936.091 463.906 936.775 464.159 937.646 464.159C938.297 464.159 939.031 464.007 939.847 463.701V464.761ZM944.96 465.171C943.871 465.171 943.014 464.827 942.39 464.139C941.77 463.446 941.46 462.496 941.46 461.288C941.46 460.085 941.772 459.139 942.396 458.451C943.021 457.758 943.875 457.412 944.96 457.412C946.049 457.412 946.904 457.758 947.523 458.451C948.148 459.139 948.46 460.085 948.46 461.288C948.46 462.496 948.148 463.446 947.523 464.139C946.904 464.827 946.049 465.171 944.96 465.171ZM944.96 464.159C945.607 464.159 946.113 463.906 946.478 463.4C946.842 462.895 947.024 462.19 947.024 461.288C947.024 460.39 946.842 459.688 946.478 459.183C946.113 458.677 945.607 458.424 944.96 458.424C944.313 458.424 943.807 458.677 943.442 459.183C943.078 459.688 942.896 460.39 942.896 461.288C942.896 462.19 943.078 462.895 943.442 463.4C943.807 463.906 944.313 464.159 944.96 464.159ZM950.422 465V457.576H951.769V458.971C952.388 457.932 953.231 457.412 954.298 457.412C955.706 457.412 956.41 458.248 956.41 459.921V465H955.063V460.29C955.063 459.711 954.972 459.301 954.79 459.06C954.612 458.813 954.312 458.69 953.888 458.69C953.213 458.69 952.507 459.176 951.769 460.146V465H950.422ZM963.629 465V463.605C962.973 464.649 962.161 465.171 961.195 465.171C960.357 465.171 959.694 464.845 959.206 464.193C958.723 463.542 958.481 462.655 958.481 461.534C958.481 460.304 958.769 459.31 959.343 458.554C959.917 457.793 960.669 457.412 961.599 457.412C962.396 457.412 963.073 457.749 963.629 458.424V454.206H964.976V465H963.629ZM963.629 459.436C963 458.761 962.385 458.424 961.783 458.424C961.191 458.424 960.73 458.684 960.402 459.203C960.079 459.723 959.917 460.454 959.917 461.397C959.917 463.143 960.439 464.016 961.482 464.016C962.243 464.016 962.959 463.542 963.629 462.594V459.436ZM971.757 464.104C970.941 464.788 970.128 465.13 969.316 465.13C968.637 465.13 968.077 464.936 967.635 464.549C967.197 464.161 966.979 463.672 966.979 463.079C966.979 462.309 967.32 461.689 968.004 461.22C968.688 460.75 969.59 460.516 970.711 460.516H971.545V459.88C971.545 459.356 971.429 458.982 971.196 458.759C970.964 458.535 970.579 458.424 970.041 458.424C969.262 458.424 968.455 458.643 967.621 459.08V457.925C968.578 457.583 969.476 457.412 970.314 457.412C971.258 457.412 971.923 457.599 972.311 457.973C972.702 458.346 972.898 458.991 972.898 459.907V463.018C972.898 463.464 972.946 463.77 973.042 463.934C973.138 464.093 973.318 464.173 973.582 464.173C973.669 464.173 973.81 464.15 974.006 464.104L974.129 464.911C973.678 465.057 973.336 465.13 973.104 465.13C972.438 465.13 971.989 464.788 971.757 464.104ZM971.545 463.229V461.356H971.142C969.296 461.356 968.373 461.855 968.373 462.854C968.373 463.214 968.492 463.503 968.729 463.722C968.965 463.94 969.28 464.05 969.672 464.05C970.26 464.05 970.884 463.776 971.545 463.229ZM976.59 465V457.576H977.937V458.971C978.62 457.932 979.538 457.412 980.691 457.412C981.097 457.412 981.557 457.469 982.072 457.583V459.688H981.061V458.656C980.86 458.611 980.678 458.588 980.514 458.588C979.999 458.588 979.545 458.709 979.153 458.95C978.766 459.187 978.36 459.593 977.937 460.167V465H976.59ZM983.891 467.7V466.688H984.438C984.948 466.688 985.319 466.606 985.552 466.442C985.784 466.278 986.028 465.925 986.283 465.383L986.618 464.672L983.501 457.576H984.896L987.322 463.134L989.77 457.576H990.979L987.24 465.95C986.949 466.602 986.6 467.055 986.194 467.311C985.789 467.57 985.212 467.7 984.465 467.7H983.891ZM1007.33 464.761C1006.53 465.034 1005.74 465.171 1004.95 465.171C1003.65 465.171 1002.65 464.834 1001.95 464.159C1001.25 463.485 1000.91 462.528 1000.91 461.288C1000.91 460.071 1001.25 459.121 1001.94 458.438C1002.63 457.754 1003.59 457.412 1004.82 457.412C1005.61 457.412 1006.4 457.531 1007.19 457.768V458.896C1006.31 458.581 1005.57 458.424 1004.95 458.424C1004.13 458.424 1003.5 458.679 1003.03 459.189C1002.57 459.7 1002.34 460.399 1002.34 461.288C1002.34 462.186 1002.59 462.89 1003.08 463.4C1003.58 463.906 1004.26 464.159 1005.13 464.159C1005.78 464.159 1006.52 464.007 1007.33 463.701V464.761ZM1012.44 465.171C1011.36 465.171 1010.5 464.827 1009.87 464.139C1009.25 463.446 1008.94 462.496 1008.94 461.288C1008.94 460.085 1009.26 459.139 1009.88 458.451C1010.51 457.758 1011.36 457.412 1012.44 457.412C1013.53 457.412 1014.39 457.758 1015.01 458.451C1015.63 459.139 1015.94 460.085 1015.94 461.288C1015.94 462.496 1015.63 463.446 1015.01 464.139C1014.39 464.827 1013.53 465.171 1012.44 465.171ZM1012.44 464.159C1013.09 464.159 1013.6 463.906 1013.96 463.4C1014.33 462.895 1014.51 462.19 1014.51 461.288C1014.51 460.39 1014.33 459.688 1013.96 459.183C1013.6 458.677 1013.09 458.424 1012.44 458.424C1011.8 458.424 1011.29 458.677 1010.93 459.183C1010.56 459.688 1010.38 460.39 1010.38 461.288C1010.38 462.19 1010.56 462.895 1010.93 463.4C1011.29 463.906 1011.8 464.159 1012.44 464.159ZM1017.91 465V457.576H1019.25V458.971C1019.87 457.932 1020.72 457.412 1021.78 457.412C1023.19 457.412 1023.89 458.248 1023.89 459.921V465H1022.55V460.29C1022.55 459.711 1022.46 459.301 1022.27 459.06C1022.1 458.813 1021.8 458.69 1021.37 458.69C1020.7 458.69 1019.99 459.176 1019.25 460.146V465H1017.91ZM1028.3 465V462.977H1030.33V465H1028.3Z" fill="white"/>
<path d="M908.436 477.288V476.276H914V477.288H908.436ZM916.994 481V472.229H919.845C920.861 472.229 921.586 472.321 922.019 472.503C922.903 472.886 923.345 473.624 923.345 474.718C923.345 475.638 922.987 476.361 922.271 476.885C921.561 477.409 920.578 477.671 919.325 477.671H918.341V481H916.994ZM918.341 476.659H919.182C921.005 476.659 921.916 476.021 921.916 474.745C921.916 474.207 921.743 473.822 921.396 473.59C921.055 473.357 920.483 473.241 919.681 473.241H918.341V476.659ZM925.977 481V473.576H927.323V474.971C928.007 473.932 928.925 473.412 930.078 473.412C930.484 473.412 930.944 473.469 931.459 473.583V475.688H930.447V474.656C930.247 474.611 930.064 474.588 929.9 474.588C929.385 474.588 928.932 474.709 928.54 474.95C928.153 475.187 927.747 475.593 927.323 476.167V481H925.977ZM936.189 481V474.588H933.489V473.576H937.536V481H936.189ZM936.019 471.895V470.206H937.707V471.895H936.019ZM941.378 481V473.576H942.561V474.971C943.139 473.932 943.691 473.412 944.215 473.412C944.885 473.412 945.315 473.932 945.507 474.971H945.555C946.029 473.932 946.585 473.412 947.223 473.412C947.688 473.412 948.025 473.583 948.234 473.925C948.444 474.262 948.549 474.809 948.549 475.565V481H947.366V475.62C947.366 475.215 947.337 474.939 947.277 474.793C947.218 474.647 947.106 474.574 946.942 474.574C946.514 474.574 946.051 475.119 945.555 476.208V481H944.372V475.866C944.372 475.356 944.342 475.016 944.283 474.848C944.224 474.674 944.105 474.588 943.928 474.588C943.736 474.588 943.508 474.745 943.244 475.06C942.984 475.369 942.757 475.757 942.561 476.222V481H941.378ZM954.886 480.104C954.07 480.788 953.257 481.13 952.445 481.13C951.766 481.13 951.206 480.936 950.764 480.549C950.326 480.161 950.107 479.672 950.107 479.079C950.107 478.309 950.449 477.689 951.133 477.22C951.816 476.75 952.719 476.516 953.84 476.516H954.674V475.88C954.674 475.356 954.558 474.982 954.325 474.759C954.093 474.535 953.708 474.424 953.17 474.424C952.391 474.424 951.584 474.643 950.75 475.08V473.925C951.707 473.583 952.605 473.412 953.443 473.412C954.387 473.412 955.052 473.599 955.439 473.973C955.831 474.346 956.027 474.991 956.027 475.907V479.018C956.027 479.464 956.075 479.77 956.171 479.934C956.267 480.093 956.447 480.173 956.711 480.173C956.798 480.173 956.939 480.15 957.135 480.104L957.258 480.911C956.807 481.057 956.465 481.13 956.232 481.13C955.567 481.13 955.118 480.788 954.886 480.104ZM954.674 479.229V477.356H954.271C952.425 477.356 951.502 477.855 951.502 478.854C951.502 479.214 951.62 479.503 951.857 479.722C952.094 479.94 952.409 480.05 952.801 480.05C953.389 480.05 954.013 479.776 954.674 479.229ZM959.719 481V473.576H961.065V474.971C961.749 473.932 962.667 473.412 963.82 473.412C964.226 473.412 964.686 473.469 965.201 473.583V475.688H964.189V474.656C963.989 474.611 963.807 474.588 963.643 474.588C963.128 474.588 962.674 474.709 962.282 474.95C961.895 475.187 961.489 475.593 961.065 476.167V481H959.719ZM967.02 483.7V482.688H967.566C968.077 482.688 968.448 482.606 968.681 482.442C968.913 482.278 969.157 481.925 969.412 481.383L969.747 480.672L966.63 473.576H968.024L970.451 479.134L972.898 473.576H974.108L970.369 481.95C970.077 482.602 969.729 483.055 969.323 483.311C968.918 483.57 968.341 483.7 967.594 483.7H967.02ZM990.46 480.761C989.662 481.034 988.867 481.171 988.074 481.171C986.78 481.171 985.782 480.834 985.08 480.159C984.383 479.485 984.034 478.528 984.034 477.288C984.034 476.071 984.378 475.121 985.066 474.438C985.759 473.754 986.721 473.412 987.951 473.412C988.735 473.412 989.526 473.531 990.323 473.768V474.896C989.444 474.581 988.694 474.424 988.074 474.424C987.263 474.424 986.625 474.679 986.16 475.189C985.7 475.7 985.47 476.399 985.47 477.288C985.47 478.186 985.716 478.89 986.208 479.4C986.705 479.906 987.388 480.159 988.259 480.159C988.91 480.159 989.644 480.007 990.46 479.701V480.761ZM995.573 481.171C994.484 481.171 993.627 480.827 993.003 480.139C992.383 479.446 992.073 478.496 992.073 477.288C992.073 476.085 992.385 475.139 993.01 474.451C993.634 473.758 994.489 473.412 995.573 473.412C996.662 473.412 997.517 473.758 998.137 474.451C998.761 475.139 999.073 476.085 999.073 477.288C999.073 478.496 998.761 479.446 998.137 480.139C997.517 480.827 996.662 481.171 995.573 481.171ZM995.573 480.159C996.22 480.159 996.726 479.906 997.091 479.4C997.455 478.895 997.638 478.19 997.638 477.288C997.638 476.39 997.455 475.688 997.091 475.183C996.726 474.677 996.22 474.424 995.573 474.424C994.926 474.424 994.42 474.677 994.056 475.183C993.691 475.688 993.509 476.39 993.509 477.288C993.509 478.19 993.691 478.895 994.056 479.4C994.42 479.906 994.926 480.159 995.573 480.159ZM1001.04 481V473.576H1002.38V474.971C1003 473.932 1003.84 473.412 1004.91 473.412C1006.32 473.412 1007.02 474.248 1007.02 475.921V481H1005.68V476.29C1005.68 475.711 1005.59 475.301 1005.4 475.06C1005.23 474.813 1004.92 474.69 1004.5 474.69C1003.83 474.69 1003.12 475.176 1002.38 476.146V481H1001.04ZM1011.43 481V478.977H1013.46V481H1011.43Z" fill="white"/>
<path class="secondary-active" d="M376.5 207.5C376.5 212.425 372.071 216.5 366.5 216.5C360.929 216.5 356.5 212.425 356.5 207.5C356.5 202.575 360.929 198.5 366.5 198.5C372.071 198.5 376.5 202.575 376.5 207.5Z" stroke="#FF7A00"/>
<line x1="411.5" y1="206" x2="411.5" y2="241" stroke="#FF7A00"/>
<line x1="365" y1="240.5" x2="411" y2="240.5" stroke="#FF7A00"/>
<line x1="365.5" y1="216" x2="365.5" y2="241" stroke="#FF7A00"/>
<rect class="section-status" x="610.5" y="72.5" width="149" height="232" stroke="#FF0000" stroke-dasharray="2 2"/>
<path class="blink" d="M765.705 105.136L765.541 99.9062V97.8828H766.888V99.9062L766.717 105.136H765.705ZM765.37 108V106.482H767.059V108H765.37ZM774.141 105.136L773.977 99.9062V97.8828H775.323V99.9062L775.152 105.136H774.141ZM773.806 108V106.482H775.494V108H773.806ZM785.775 99.4346V100.604C784.786 100.221 783.907 100.029 783.137 100.029C781.92 100.029 781.312 100.439 781.312 101.26C781.312 101.592 781.425 101.861 781.653 102.066C781.881 102.267 782.303 102.474 782.918 102.688L783.779 102.989L784.6 103.27C785.871 103.716 786.507 104.473 786.507 105.539C786.507 106.35 786.181 107 785.529 107.487C784.882 107.97 784.014 108.212 782.925 108.212C782.168 108.212 781.191 108.05 779.992 107.727V106.394C781.186 106.931 782.177 107.2 782.966 107.2C783.631 107.2 784.162 107.07 784.559 106.811C784.955 106.546 785.153 106.193 785.153 105.751C785.153 105.414 785.035 105.147 784.798 104.951C784.565 104.755 784.082 104.523 783.349 104.254L782.446 103.926C781.549 103.593 780.924 103.251 780.573 102.9C780.227 102.549 780.054 102.082 780.054 101.499C780.054 100.711 780.32 100.1 780.854 99.667C781.391 99.234 782.146 99.0176 783.116 99.0176C783.905 99.0176 784.791 99.1566 785.775 99.4346ZM790.854 108V104.411L787.525 99.2295H789.077L791.627 103.276L794.416 99.2295H795.694L792.201 104.411V108H790.854ZM802.646 99.4346V100.604C801.658 100.221 800.778 100.029 800.008 100.029C798.791 100.029 798.183 100.439 798.183 101.26C798.183 101.592 798.297 101.861 798.524 102.066C798.752 102.267 799.174 102.474 799.789 102.688L800.65 102.989L801.471 103.27C802.742 103.716 803.378 104.473 803.378 105.539C803.378 106.35 803.052 107 802.4 107.487C801.753 107.97 800.885 108.212 799.796 108.212C799.039 108.212 798.062 108.05 796.863 107.727V106.394C798.057 106.931 799.049 107.2 799.837 107.2C800.502 107.2 801.033 107.07 801.43 106.811C801.826 106.546 802.024 106.193 802.024 105.751C802.024 105.414 801.906 105.147 801.669 104.951C801.437 104.755 800.953 104.523 800.22 104.254L799.317 103.926C798.42 103.593 797.795 103.251 797.444 102.9C797.098 102.549 796.925 102.082 796.925 101.499C796.925 100.711 797.191 100.1 797.725 99.667C798.262 99.234 799.017 99.0176 799.987 99.0176C800.776 99.0176 801.662 99.1566 802.646 99.4346ZM807.719 108V100.241H804.349V99.2295H812.442V100.241H809.072V108H807.719ZM814.09 108V99.2295H820.017V100.241H815.437V102.9H819.319V103.912H815.437V106.988H820.331V108H814.09ZM821.691 108V99.2295H823.312L825.239 104.63H825.253L827.146 99.2295H828.835V108H827.734V100.474H827.721L825.745 106.147H824.61L822.642 100.631H822.628V108H821.691ZM836.389 99.4346V100.604C835.4 100.221 834.52 100.029 833.75 100.029C832.533 100.029 831.925 100.439 831.925 101.26C831.925 101.592 832.039 101.861 832.267 102.066C832.494 102.267 832.916 102.474 833.531 102.688L834.393 102.989L835.213 103.27C836.484 103.716 837.12 104.473 837.12 105.539C837.12 106.35 836.794 107 836.143 107.487C835.495 107.97 834.627 108.212 833.538 108.212C832.782 108.212 831.804 108.05 830.605 107.727V106.394C831.799 106.931 832.791 107.2 833.579 107.2C834.244 107.2 834.775 107.07 835.172 106.811C835.568 106.546 835.767 106.193 835.767 105.751C835.767 105.414 835.648 105.147 835.411 104.951C835.179 104.755 834.696 104.523 833.962 104.254L833.06 103.926C832.162 103.593 831.537 103.251 831.187 102.9C830.84 102.549 830.667 102.082 830.667 101.499C830.667 100.711 830.934 100.1 831.467 99.667C832.005 99.234 832.759 99.0176 833.729 99.0176C834.518 99.0176 835.404 99.1566 836.389 99.4346ZM847.244 108V99.2295H849.89C852.806 99.2295 854.265 100.633 854.265 103.44C854.265 104.739 853.948 105.79 853.314 106.592C852.918 107.098 852.428 107.46 851.845 107.679C851.266 107.893 850.493 108 849.527 108H847.244ZM848.591 106.988H849.268C850.553 106.988 851.466 106.733 852.009 106.223C852.556 105.712 852.829 104.855 852.829 103.652C852.829 102.431 852.583 101.558 852.091 101.034C851.599 100.506 850.778 100.241 849.63 100.241H848.591V106.988ZM855.215 103.611C855.215 102.212 855.557 101.098 856.24 100.269C856.928 99.4346 857.851 99.0176 859.009 99.0176C860.166 99.0176 861.087 99.4346 861.771 100.269C862.459 101.098 862.803 102.212 862.803 103.611C862.803 105.015 862.459 106.134 861.771 106.968C861.087 107.797 860.166 108.212 859.009 108.212C857.851 108.212 856.928 107.797 856.24 106.968C855.557 106.134 855.215 105.015 855.215 103.611ZM856.65 103.611C856.65 104.76 856.853 105.646 857.259 106.271C857.669 106.89 858.252 107.2 859.009 107.2C859.765 107.2 860.349 106.89 860.759 106.271C861.169 105.646 861.374 104.76 861.374 103.611C861.374 102.467 861.169 101.586 860.759 100.966C860.349 100.341 859.765 100.029 859.009 100.029C858.252 100.029 857.669 100.341 857.259 100.966C856.853 101.586 856.65 102.467 856.65 103.611ZM864.642 108L863.336 99.2295H864.484L865.551 106.517H865.571L866.836 101.082H868.135L869.379 106.435H869.393L870.521 99.2295H871.546L870.104 108H868.641L867.431 102.853H867.417L866.2 108H864.642ZM872.674 108V99.2021H873.945L877.972 105.58H877.985V99.2295H879.086V108H877.842L873.788 101.574H873.768V108H872.674ZM883.803 105.136L883.639 99.9062V97.8828H884.985V99.9062L884.814 105.136H883.803ZM883.468 108V106.482H885.156V108H883.468ZM892.238 105.136L892.074 99.9062V97.8828H893.421V99.9062L893.25 105.136H892.238ZM891.903 108V106.482H893.592V108H891.903Z" fill="#FF0000"/>
<rect class="section-status" x="267.5" y="95.5" width="329" height="343" stroke="white" stroke-dasharray="2 2"/>
<path class="stable" d="M115.705 148.136L115.541 142.906V140.883H116.888V142.906L116.717 148.136H115.705ZM115.37 151V149.482H117.059V151H115.37ZM124.141 148.136L123.977 142.906V140.883H125.323V142.906L125.152 148.136H124.141ZM123.806 151V149.482H125.494V151H123.806ZM135.775 142.435V143.604C134.786 143.221 133.907 143.029 133.137 143.029C131.92 143.029 131.312 143.439 131.312 144.26C131.312 144.592 131.425 144.861 131.653 145.066C131.881 145.267 132.303 145.474 132.918 145.688L133.779 145.989L134.6 146.27C135.871 146.716 136.507 147.473 136.507 148.539C136.507 149.35 136.181 150 135.529 150.487C134.882 150.97 134.014 151.212 132.925 151.212C132.168 151.212 131.191 151.05 129.992 150.727V149.394C131.186 149.931 132.177 150.2 132.966 150.2C133.631 150.2 134.162 150.07 134.559 149.811C134.955 149.546 135.153 149.193 135.153 148.751C135.153 148.414 135.035 148.147 134.798 147.951C134.565 147.755 134.082 147.523 133.349 147.254L132.446 146.926C131.549 146.593 130.924 146.251 130.573 145.9C130.227 145.549 130.054 145.082 130.054 144.499C130.054 143.711 130.32 143.1 130.854 142.667C131.391 142.234 132.146 142.018 133.116 142.018C133.905 142.018 134.791 142.157 135.775 142.435ZM140.854 151V147.411L137.525 142.229H139.077L141.627 146.276L144.416 142.229H145.694L142.201 147.411V151H140.854ZM152.646 142.435V143.604C151.658 143.221 150.778 143.029 150.008 143.029C148.791 143.029 148.183 143.439 148.183 144.26C148.183 144.592 148.297 144.861 148.524 145.066C148.752 145.267 149.174 145.474 149.789 145.688L150.65 145.989L151.471 146.27C152.742 146.716 153.378 147.473 153.378 148.539C153.378 149.35 153.052 150 152.4 150.487C151.753 150.97 150.885 151.212 149.796 151.212C149.039 151.212 148.062 151.05 146.863 150.727V149.394C148.057 149.931 149.049 150.2 149.837 150.2C150.502 150.2 151.033 150.07 151.43 149.811C151.826 149.546 152.024 149.193 152.024 148.751C152.024 148.414 151.906 148.147 151.669 147.951C151.437 147.755 150.953 147.523 150.22 147.254L149.317 146.926C148.42 146.593 147.795 146.251 147.444 145.9C147.098 145.549 146.925 145.082 146.925 144.499C146.925 143.711 147.191 143.1 147.725 142.667C148.262 142.234 149.017 142.018 149.987 142.018C150.776 142.018 151.662 142.157 152.646 142.435ZM157.719 151V143.241H154.349V142.229H162.442V143.241H159.072V151H157.719ZM164.09 151V142.229H170.017V143.241H165.437V145.9H169.319V146.912H165.437V149.988H170.331V151H164.09ZM171.691 151V142.229H173.312L175.239 147.63H175.253L177.146 142.229H178.835V151H177.734V143.474H177.721L175.745 149.147H174.61L172.642 143.631H172.628V151H171.691ZM186.389 142.435V143.604C185.4 143.221 184.52 143.029 183.75 143.029C182.533 143.029 181.925 143.439 181.925 144.26C181.925 144.592 182.039 144.861 182.267 145.066C182.494 145.267 182.916 145.474 183.531 145.688L184.393 145.989L185.213 146.27C186.484 146.716 187.12 147.473 187.12 148.539C187.12 149.35 186.794 150 186.143 150.487C185.495 150.97 184.627 151.212 183.538 151.212C182.782 151.212 181.804 151.05 180.605 150.727V149.394C181.799 149.931 182.791 150.2 183.579 150.2C184.244 150.2 184.775 150.07 185.172 149.811C185.568 149.546 185.767 149.193 185.767 148.751C185.767 148.414 185.648 148.147 185.411 147.951C185.179 147.755 184.696 147.523 183.962 147.254L183.06 146.926C182.162 146.593 181.537 146.251 181.187 145.9C180.84 145.549 180.667 145.082 180.667 144.499C180.667 143.711 180.934 143.1 181.467 142.667C182.005 142.234 182.759 142.018 183.729 142.018C184.518 142.018 185.404 142.157 186.389 142.435ZM196.438 151L199.896 142.229H201.243L204.702 151H203.273L202.446 148.806H198.44L197.6 151H196.438ZM198.844 147.794H202.043L200.437 143.604L198.844 147.794ZM212.687 150.727C211.784 151.05 210.934 151.212 210.137 151.212C208.742 151.212 207.619 150.795 206.767 149.961C205.914 149.122 205.488 148.022 205.488 146.659C205.488 145.278 205.912 144.16 206.76 143.303C207.607 142.446 208.715 142.018 210.082 142.018C210.857 142.018 211.686 142.15 212.57 142.414V143.651C211.668 143.237 210.825 143.029 210.041 143.029C209.134 143.029 208.387 143.362 207.799 144.027C207.215 144.693 206.924 145.54 206.924 146.57C206.924 147.609 207.254 148.459 207.915 149.12C208.576 149.781 209.426 150.111 210.465 150.111C211.094 150.111 211.834 149.947 212.687 149.619V150.727ZM216.768 151V143.241H213.397V142.229H221.491V143.241H218.121V151H216.768ZM222.845 151V149.988H225.203V143.241H222.845V142.229H228.915V143.241H226.557V149.988H228.915V151H222.845ZM233.598 151L230.193 142.229H231.615L234.418 149.202L237.282 142.229H238.431L234.951 151H233.598ZM240.01 151V142.229H245.937V143.241H241.356V145.9H245.239V146.912H241.356V149.988H246.251V151H240.01ZM250.674 148.136L250.51 142.906V140.883H251.856V142.906L251.686 148.136H250.674ZM250.339 151V149.482H252.027V151H250.339ZM259.109 148.136L258.945 142.906V140.883H260.292V142.906L260.121 148.136H259.109ZM258.774 151V149.482H260.463V151H258.774Z"/>
<path d="M696.5 459.5C696.5 466.147 691.332 471.5 685 471.5C678.668 471.5 673.5 466.147 673.5 459.5C673.5 452.853 678.668 447.5 685 447.5C691.332 447.5 696.5 452.853 696.5 459.5Z" stroke="#42FF00"/>
<path d="M703.025 450.349V449.626H707V450.349H703.025ZM708.929 453V446.735H710.95C712.415 446.735 713.147 447.22 713.147 448.19C713.147 448.562 713.021 448.882 712.767 449.152C712.516 449.419 712.164 449.61 711.712 449.724C712.874 449.961 713.455 450.513 713.455 451.379C713.455 451.874 713.284 452.261 712.942 452.541C712.721 452.727 712.469 452.85 712.186 452.912C711.902 452.971 711.447 453 710.818 453H708.929ZM709.891 449.445H710.228C711.523 449.445 712.171 449.084 712.171 448.361C712.171 448.007 712.046 447.767 711.795 447.644C711.544 447.52 711.059 447.458 710.34 447.458H709.891V449.445ZM709.891 452.277H710.76C711.395 452.277 711.831 452.212 712.068 452.082C712.309 451.952 712.43 451.713 712.43 451.364C712.43 450.961 712.233 450.64 711.839 450.402C711.448 450.165 710.916 450.046 710.242 450.046H709.891V452.277ZM716.941 453V446.013H714.896V445.29H717.908V453H716.941ZM722.85 453V448.42H720.921V447.697H723.812V453H722.85ZM722.728 446.496V445.29H723.934V446.496H722.728ZM726.99 453V447.697H727.952V448.693C728.395 447.951 728.997 447.58 729.759 447.58C730.765 447.58 731.268 448.177 731.268 449.372V453H730.306V449.636C730.306 449.222 730.241 448.929 730.11 448.757C729.983 448.581 729.769 448.493 729.466 448.493C728.984 448.493 728.479 448.84 727.952 449.533V453H726.99ZM733.167 453V445.29H734.129V450.227L736.355 447.697H737.396L735.301 450.085L737.928 453H736.629L734.129 450.227V453H733.167ZM739.065 452.785V451.916C739.811 452.238 740.455 452.399 740.999 452.399C741.39 452.399 741.712 452.321 741.966 452.165C742.223 452.006 742.352 451.805 742.352 451.564C742.352 451.255 742.047 451.003 741.438 450.808L740.408 450.471C739.604 450.21 739.202 449.751 739.202 449.094C739.202 448.612 739.383 448.239 739.744 447.976C740.109 447.712 740.623 447.58 741.287 447.58C741.785 447.58 742.363 447.657 743.021 447.81V448.591C742.386 448.399 741.806 448.303 741.282 448.303C740.931 448.303 740.649 448.366 740.438 448.493C740.229 448.62 740.125 448.791 740.125 449.006C740.125 449.27 740.364 449.484 740.843 449.65L742.059 450.075C742.501 450.231 742.819 450.419 743.011 450.637C743.206 450.852 743.304 451.132 743.304 451.477C743.304 451.978 743.097 452.378 742.684 452.678C742.27 452.974 741.715 453.122 741.019 453.122C740.41 453.122 739.759 453.01 739.065 452.785ZM752.977 453V448.42H751.048V447.697H753.938V453H752.977ZM752.854 446.496V445.29H754.061V446.496H752.854ZM758.396 453V448.542H756.951V447.819H758.396V447.258C758.396 446.516 758.569 445.982 758.914 445.656C759.259 445.331 759.826 445.168 760.613 445.168C761.134 445.168 761.627 445.238 762.093 445.378V446.14C761.618 445.974 761.149 445.891 760.687 445.891C760.195 445.891 759.85 445.985 759.651 446.174C759.456 446.359 759.358 446.687 759.358 447.155V447.819H761.893V448.542H759.358V453H758.396ZM771.292 453.122C770.514 453.122 769.902 452.876 769.456 452.385C769.013 451.89 768.792 451.211 768.792 450.349C768.792 449.489 769.015 448.814 769.461 448.322C769.907 447.827 770.517 447.58 771.292 447.58C772.07 447.58 772.68 447.827 773.123 448.322C773.569 448.814 773.792 449.489 773.792 450.349C773.792 451.211 773.569 451.89 773.123 452.385C772.68 452.876 772.07 453.122 771.292 453.122ZM771.292 452.399C771.754 452.399 772.116 452.219 772.376 451.857C772.636 451.496 772.767 450.993 772.767 450.349C772.767 449.707 772.636 449.206 772.376 448.845C772.116 448.483 771.754 448.303 771.292 448.303C770.83 448.303 770.468 448.483 770.208 448.845C769.948 449.206 769.817 449.707 769.817 450.349C769.817 450.993 769.948 451.496 770.208 451.857C770.468 452.219 770.83 452.399 771.292 452.399ZM775.193 453V447.697H776.155V448.693C776.598 447.951 777.2 447.58 777.962 447.58C778.968 447.58 779.471 448.177 779.471 449.372V453H778.509V449.636C778.509 449.222 778.444 448.929 778.313 448.757C778.187 448.581 777.972 448.493 777.669 448.493C777.187 448.493 776.683 448.84 776.155 449.533V453H775.193ZM704.168 463V458.542H702.723V457.819H704.168V457.258C704.168 456.516 704.34 455.982 704.686 455.656C705.031 455.331 705.597 455.168 706.385 455.168C706.906 455.168 707.399 455.238 707.864 455.378V456.14C707.389 455.974 706.92 455.891 706.458 455.891C705.966 455.891 705.621 455.985 705.423 456.174C705.228 456.359 705.13 456.687 705.13 457.155V457.819H707.664V458.542H705.13V463H704.168ZM711.038 463.122C710.26 463.122 709.648 462.876 709.202 462.385C708.759 461.89 708.538 461.211 708.538 460.349C708.538 459.489 708.761 458.814 709.207 458.322C709.653 457.827 710.263 457.58 711.038 457.58C711.816 457.58 712.426 457.827 712.869 458.322C713.315 458.814 713.538 459.489 713.538 460.349C713.538 461.211 713.315 461.89 712.869 462.385C712.426 462.876 711.816 463.122 711.038 463.122ZM711.038 462.399C711.5 462.399 711.862 462.219 712.122 461.857C712.382 461.496 712.513 460.993 712.513 460.349C712.513 459.707 712.382 459.206 712.122 458.845C711.862 458.483 711.5 458.303 711.038 458.303C710.576 458.303 710.215 458.483 709.954 458.845C709.694 459.206 709.563 459.707 709.563 460.349C709.563 460.993 709.694 461.496 709.954 461.857C710.215 462.219 710.576 462.399 711.038 462.399ZM715.555 463V457.697H716.517V458.693C717.005 457.951 717.661 457.58 718.484 457.58C718.774 457.58 719.103 457.621 719.471 457.702V459.206H718.748V458.469C718.605 458.436 718.475 458.42 718.357 458.42C717.99 458.42 717.666 458.506 717.386 458.679C717.109 458.848 716.819 459.138 716.517 459.548V463H715.555ZM726.946 463.059V455.29H727.908V458.693C728.374 457.951 728.951 457.58 729.642 457.58C730.244 457.58 730.717 457.813 731.062 458.278C731.411 458.741 731.585 459.372 731.585 460.173C731.585 461.052 731.38 461.763 730.97 462.307C730.56 462.85 730.022 463.122 729.358 463.122C728.789 463.122 728.305 462.881 727.908 462.399L727.669 463.059H726.946ZM727.908 461.677C728.354 462.159 728.794 462.399 729.227 462.399C729.65 462.399 729.977 462.214 730.208 461.843C730.442 461.468 730.56 460.946 730.56 460.275C730.56 459.025 730.187 458.4 729.441 458.4C728.898 458.4 728.387 458.739 727.908 459.416V461.677ZM735.14 463.122C734.362 463.122 733.75 462.876 733.304 462.385C732.861 461.89 732.64 461.211 732.64 460.349C732.64 459.489 732.863 458.814 733.309 458.322C733.755 457.827 734.365 457.58 735.14 457.58C735.918 457.58 736.528 457.827 736.971 458.322C737.417 458.814 737.64 459.489 737.64 460.349C737.64 461.211 737.417 461.89 736.971 462.385C736.528 462.876 735.918 463.122 735.14 463.122ZM735.14 462.399C735.602 462.399 735.963 462.219 736.224 461.857C736.484 461.496 736.614 460.993 736.614 460.349C736.614 459.707 736.484 459.206 736.224 458.845C735.963 458.483 735.602 458.303 735.14 458.303C734.677 458.303 734.316 458.483 734.056 458.845C733.795 459.206 733.665 459.707 733.665 460.349C733.665 460.993 733.795 461.496 734.056 461.857C734.316 462.219 734.677 462.399 735.14 462.399ZM743.533 462.995C743.051 463.08 742.586 463.122 742.137 463.122C741.352 463.122 740.818 462.982 740.535 462.702C740.252 462.419 740.11 461.885 740.11 461.101V458.542H738.787V457.819H740.11V456.677H741.077V457.819H743.426V458.542H741.077V461.257C741.077 461.56 741.095 461.768 741.131 461.882C741.17 461.996 741.251 462.095 741.375 462.18C741.596 462.326 741.919 462.399 742.342 462.399C742.742 462.399 743.139 462.354 743.533 462.263V462.995ZM745.066 463V455.29H746.028V457.697V458.693C746.471 457.951 747.073 457.58 747.835 457.58C748.841 457.58 749.344 458.177 749.344 459.372V463H748.382V459.636C748.382 459.222 748.317 458.929 748.187 458.757C748.06 458.581 747.845 458.493 747.542 458.493C747.06 458.493 746.556 458.84 746.028 459.533V463H745.066ZM757.103 464.929V457.697H758.064V458.693C758.53 457.951 759.108 457.58 759.798 457.58C760.4 457.58 760.874 457.813 761.219 458.278C761.567 458.741 761.741 459.372 761.741 460.173C761.741 461.052 761.536 461.763 761.126 462.307C760.716 462.85 760.179 463.122 759.515 463.122C758.945 463.122 758.462 462.881 758.064 462.399V464.929H757.103ZM758.064 461.677C758.51 462.159 758.95 462.399 759.383 462.399C759.806 462.399 760.133 462.214 760.364 461.843C760.599 461.468 760.716 460.946 760.716 460.275C760.716 459.025 760.343 458.4 759.598 458.4C759.054 458.4 758.543 458.739 758.064 459.416V461.677ZM763.758 463V457.697H764.72V458.693C765.208 457.951 765.864 457.58 766.688 457.58C766.977 457.58 767.306 457.621 767.674 457.702V459.206H766.951V458.469C766.808 458.436 766.678 458.42 766.561 458.42C766.193 458.42 765.869 458.506 765.589 458.679C765.312 458.848 765.022 459.138 764.72 459.548V463H763.758ZM771.053 463V458.42H769.124V457.697H772.015V463H771.053ZM770.931 456.496V455.29H772.137V456.496H770.931ZM774.759 463V457.697H775.604V458.693C776.017 457.951 776.411 457.58 776.785 457.58C777.264 457.58 777.571 457.951 777.708 458.693H777.742C778.081 457.951 778.478 457.58 778.934 457.58C779.266 457.58 779.507 457.702 779.656 457.946C779.806 458.187 779.881 458.578 779.881 459.118V463H779.036V459.157C779.036 458.868 779.015 458.671 778.973 458.566C778.93 458.462 778.851 458.41 778.733 458.41C778.427 458.41 778.097 458.799 777.742 459.577V463H776.897V459.333C776.897 458.968 776.876 458.726 776.834 458.605C776.792 458.482 776.707 458.42 776.58 458.42C776.443 458.42 776.281 458.532 776.092 458.757C775.906 458.978 775.743 459.255 775.604 459.587V463H774.759ZM784.407 462.36C783.825 462.849 783.243 463.093 782.664 463.093C782.179 463.093 781.779 462.954 781.463 462.678C781.15 462.401 780.994 462.051 780.994 461.628C780.994 461.078 781.238 460.635 781.727 460.3C782.215 459.965 782.859 459.797 783.66 459.797H784.256V459.343C784.256 458.968 784.173 458.701 784.007 458.542C783.841 458.382 783.566 458.303 783.182 458.303C782.625 458.303 782.049 458.459 781.453 458.771V457.946C782.137 457.702 782.778 457.58 783.377 457.58C784.051 457.58 784.526 457.714 784.803 457.98C785.083 458.247 785.223 458.708 785.223 459.362V461.584C785.223 461.903 785.257 462.121 785.325 462.238C785.394 462.352 785.522 462.409 785.711 462.409C785.773 462.409 785.874 462.393 786.014 462.36L786.102 462.937C785.779 463.041 785.535 463.093 785.369 463.093C784.894 463.093 784.573 462.849 784.407 462.36ZM784.256 461.735V460.397H783.968C782.649 460.397 781.99 460.754 781.99 461.467C781.99 461.724 782.075 461.931 782.244 462.087C782.413 462.243 782.638 462.321 782.918 462.321C783.338 462.321 783.784 462.126 784.256 461.735ZM787.859 463V457.697H788.821V458.693C789.31 457.951 789.965 457.58 790.789 457.58C791.079 457.58 791.408 457.621 791.775 457.702V459.206H791.053V458.469C790.91 458.436 790.779 458.42 790.662 458.42C790.294 458.42 789.97 458.506 789.69 458.679C789.414 458.848 789.124 459.138 788.821 459.548V463H787.859ZM793.074 464.929V464.206H793.465C793.829 464.206 794.095 464.147 794.261 464.03C794.427 463.913 794.601 463.661 794.783 463.273L795.022 462.766L792.796 457.697H793.792L795.525 461.667L797.273 457.697H798.138L795.467 463.679C795.258 464.144 795.009 464.468 794.72 464.65C794.43 464.836 794.018 464.929 793.484 464.929H793.074ZM706.697 473L706.336 472.565C705.805 472.976 705.184 473.181 704.471 473.181C703.79 473.181 703.227 472.966 702.781 472.536C702.339 472.103 702.117 471.558 702.117 470.9C702.117 470.386 702.251 469.958 702.518 469.616C702.785 469.271 703.222 468.968 703.831 468.708C703.541 468.073 703.396 467.562 703.396 467.175C703.396 466.706 703.543 466.325 703.836 466.032C704.132 465.739 704.516 465.593 704.988 465.593C705.438 465.593 705.804 465.723 706.087 465.983C706.37 466.241 706.512 466.576 706.512 466.989C706.512 467.715 706.002 468.368 704.983 468.947C705.358 469.676 705.901 470.474 706.614 471.34C706.917 470.887 707.068 470.282 707.068 469.523L707.059 469.152H708.025C707.957 470.357 707.635 471.278 707.059 471.916C707.365 472.281 707.687 472.642 708.025 473H706.697ZM705.911 472.009C705.143 471.075 704.546 470.174 704.119 469.309C703.452 469.637 703.118 470.101 703.118 470.7C703.118 471.188 703.266 471.604 703.562 471.945C703.859 472.287 704.218 472.458 704.642 472.458C705.052 472.458 705.475 472.308 705.911 472.009ZM704.695 468.308C705.314 468.015 705.623 467.598 705.623 467.058C705.623 466.84 705.564 466.662 705.447 466.525C705.333 466.385 705.185 466.315 705.003 466.315C704.824 466.315 704.671 466.39 704.544 466.54C704.417 466.687 704.354 466.866 704.354 467.077C704.354 467.38 704.467 467.79 704.695 468.308ZM714.964 472.785V471.916C715.709 472.238 716.354 472.399 716.897 472.399C717.288 472.399 717.61 472.321 717.864 472.165C718.121 472.006 718.25 471.805 718.25 471.564C718.25 471.255 717.946 471.003 717.337 470.808L716.307 470.471C715.503 470.21 715.101 469.751 715.101 469.094C715.101 468.612 715.281 468.239 715.643 467.976C716.007 467.712 716.521 467.58 717.186 467.58C717.684 467.58 718.261 467.657 718.919 467.81V468.591C718.284 468.399 717.705 468.303 717.181 468.303C716.829 468.303 716.548 468.366 716.336 468.493C716.128 468.62 716.023 468.791 716.023 469.006C716.023 469.27 716.263 469.484 716.741 469.65L717.957 470.075C718.4 470.231 718.717 470.419 718.909 470.637C719.104 470.852 719.202 471.132 719.202 471.477C719.202 471.978 718.995 472.378 718.582 472.678C718.169 472.974 717.614 473.122 716.917 473.122C716.308 473.122 715.657 473.01 714.964 472.785ZM725.438 472.79C724.77 473.011 724.158 473.122 723.602 473.122C722.69 473.122 721.989 472.888 721.497 472.419C721.009 471.95 720.765 471.28 720.765 470.407C720.765 469.584 720.999 468.907 721.468 468.376C721.94 467.845 722.539 467.58 723.265 467.58C723.997 467.58 724.536 467.8 724.881 468.239C725.229 468.679 725.403 469.362 725.403 470.29V470.598H721.79C721.862 471.799 722.509 472.399 723.733 472.399C724.251 472.399 724.819 472.276 725.438 472.028V472.79ZM721.819 469.875H724.378V469.738C724.378 468.781 723.979 468.303 723.182 468.303C722.798 468.303 722.485 468.441 722.244 468.718C722.007 468.994 721.865 469.38 721.819 469.875ZM731.487 472.829C730.918 473.024 730.35 473.122 729.783 473.122C728.859 473.122 728.146 472.881 727.645 472.399C727.146 471.918 726.897 471.234 726.897 470.349C726.897 469.479 727.143 468.801 727.635 468.312C728.13 467.824 728.816 467.58 729.695 467.58C730.255 467.58 730.82 467.665 731.39 467.834V468.64C730.761 468.415 730.226 468.303 729.783 468.303C729.204 468.303 728.748 468.485 728.416 468.85C728.087 469.214 727.923 469.714 727.923 470.349C727.923 470.99 728.099 471.493 728.45 471.857C728.805 472.219 729.293 472.399 729.915 472.399C730.381 472.399 730.905 472.29 731.487 472.072V472.829ZM735.14 473.122C734.362 473.122 733.75 472.876 733.304 472.385C732.861 471.89 732.64 471.211 732.64 470.349C732.64 469.489 732.863 468.814 733.309 468.322C733.755 467.827 734.365 467.58 735.14 467.58C735.918 467.58 736.528 467.827 736.971 468.322C737.417 468.814 737.64 469.489 737.64 470.349C737.64 471.211 737.417 471.89 736.971 472.385C736.528 472.876 735.918 473.122 735.14 473.122ZM735.14 472.399C735.602 472.399 735.963 472.219 736.224 471.857C736.484 471.496 736.614 470.993 736.614 470.349C736.614 469.707 736.484 469.206 736.224 468.845C735.963 468.483 735.602 468.303 735.14 468.303C734.677 468.303 734.316 468.483 734.056 468.845C733.795 469.206 733.665 469.707 733.665 470.349C733.665 470.993 733.795 471.496 734.056 471.857C734.316 472.219 734.677 472.399 735.14 472.399ZM739.041 473V467.697H740.003V468.693C740.446 467.951 741.048 467.58 741.81 467.58C742.815 467.58 743.318 468.177 743.318 469.372V473H742.356V469.636C742.356 469.222 742.291 468.929 742.161 468.757C742.034 468.581 741.819 468.493 741.517 468.493C741.035 468.493 740.53 468.84 740.003 469.533V473H739.041ZM748.475 473V472.004C748.006 472.749 747.426 473.122 746.736 473.122C746.137 473.122 745.664 472.889 745.315 472.424C744.97 471.958 744.798 471.325 744.798 470.524C744.798 469.646 745.003 468.936 745.413 468.396C745.823 467.852 746.36 467.58 747.024 467.58C747.594 467.58 748.077 467.821 748.475 468.303V465.29H749.437V473H748.475ZM748.475 469.025C748.025 468.544 747.586 468.303 747.156 468.303C746.733 468.303 746.404 468.488 746.17 468.859C745.939 469.23 745.823 469.753 745.823 470.427C745.823 471.674 746.196 472.297 746.941 472.297C747.485 472.297 747.996 471.958 748.475 471.281V469.025ZM754.28 472.36C753.698 472.849 753.117 473.093 752.537 473.093C752.052 473.093 751.652 472.954 751.336 472.678C751.023 472.401 750.867 472.051 750.867 471.628C750.867 471.078 751.111 470.635 751.6 470.3C752.088 469.965 752.732 469.797 753.533 469.797H754.129V469.343C754.129 468.968 754.046 468.701 753.88 468.542C753.714 468.382 753.439 468.303 753.055 468.303C752.498 468.303 751.922 468.459 751.326 468.771V467.946C752.01 467.702 752.651 467.58 753.25 467.58C753.924 467.58 754.399 467.714 754.676 467.98C754.956 468.247 755.096 468.708 755.096 469.362V471.584C755.096 471.903 755.13 472.121 755.198 472.238C755.267 472.352 755.395 472.409 755.584 472.409C755.646 472.409 755.747 472.393 755.887 472.36L755.975 472.937C755.652 473.041 755.408 473.093 755.242 473.093C754.767 473.093 754.446 472.849 754.28 472.36ZM754.129 471.735V470.397H753.841C752.522 470.397 751.863 470.754 751.863 471.467C751.863 471.724 751.948 471.931 752.117 472.087C752.286 472.243 752.511 472.321 752.791 472.321C753.211 472.321 753.657 472.126 754.129 471.735ZM756.922 474.929V474.206H757.312C757.677 474.206 757.942 474.147 758.108 474.03C758.274 473.913 758.449 473.661 758.631 473.273L758.87 472.766L756.644 467.697H757.64L759.373 471.667L761.121 467.697H761.985L759.314 473.679C759.106 474.144 758.857 474.468 758.567 474.65C758.278 474.836 757.866 474.929 757.332 474.929H756.922Z" fill="white"/>
</g>
<defs>
<clipPath id="clip0">
<rect width="1090" height="519" fill="white"/>
</clipPath>
<clipPath id="clip1">
<rect width="56" height="53" fill="white" transform="translate(24 439)"/>
</clipPath>
</defs>
</svg>
