<svg width="56" height="56" viewBox="0 0 56 56" fill="none" xmlns="http://www.w3.org/2000/svg">
<path d="M52 21.0228V23.7207C52 23.7207 50.2699 24.4127 49.44 29.6733C49.44 29.6733 47.8478 36.1774 41.065 36.1774C40.3729 36.1774 39.6809 36.1774 38.9186 36.1071C37.2588 35.8989 35.6665 35.2772 34.35 34.3067C33.1741 33.4768 32.2036 32.3009 31.444 31.0546C30.6816 29.7409 30.2681 28.2865 29.7842 26.8321C29.5761 26.1401 29.23 25.448 28.6083 25.102C28.2623 24.8939 27.7784 24.8939 27.3621 24.8939C26.9458 24.9641 26.5322 25.0317 26.2537 25.3102C25.7698 25.7265 25.632 26.4185 25.4914 27.0403C24.8696 29.8787 23.4152 32.4387 21.2013 34.3066C20.8553 34.5824 20.5795 34.7905 20.2335 34.9987C18.8495 35.8989 17.2572 36.3125 15.665 36.3125C15.665 36.3125 7.63596 37.0045 6.11417 30.568C6.11417 30.568 4.8004 24.5478 3 23.6476L3.00541 20.747C3.00541 20.747 9.71762 18.7412 14.9783 19.2251C14.9783 19.2251 19.2009 19.5711 22.9368 20.401C25.6346 20.9552 28.4731 21.5769 31.1706 20.8849C33.5928 20.3307 36.6366 19.6387 39.4045 19.2251C39.4748 19.2927 44.803 17.9789 51.9989 21.0228L52 21.0228Z" stroke="white" stroke-width="0.5" stroke-miterlimit="10" stroke-linecap="round" stroke-linejoin="round"/>
</svg>
