<svg width="72" height="60" viewBox="0 0 72 60" fill="none" xmlns="http://www.w3.org/2000/svg">
<g opacity="0.85">
<path d="M28.1887 17.0832C25.6 17.5484 23.5172 19.4743 22.8607 22.0061C22.6239 22.9204 22.6077 23.4559 22.6346 30.5482C22.6508 37.0616 22.6561 37.213 22.7638 37.7162C23.3612 40.4265 25.2771 42.3578 28.0004 42.9961C28.3556 43.0773 28.8076 43.0935 31.7192 43.1097C34.7331 43.1314 35.0452 43.126 35.126 43.0448C35.2067 42.9637 35.2121 41.9196 35.2121 30.0829C35.2121 21.3082 35.1959 17.1752 35.1582 17.0994C35.1044 17.002 35.0129 16.9966 31.8592 17.002C29.2974 17.0075 28.5278 17.0237 28.1887 17.0832ZM33.0593 30.0667V41.027L30.8689 40.9999C28.8507 40.9783 28.6354 40.9674 28.2318 40.8647C26.4988 40.4156 25.2125 39.074 24.852 37.3267C24.7336 36.7803 24.7336 23.3207 24.8466 22.7851C25.1695 21.265 26.219 20.0045 27.6344 19.4365C28.3448 19.1497 28.6731 19.1173 30.9765 19.1119L33.0593 19.1065V30.0667Z" fill="white"/>
<path d="M28.6516 22.412C28.3125 22.4769 27.7958 22.7365 27.5214 22.98C26.9563 23.4723 26.6764 24.1701 26.7195 24.9924C26.741 25.4198 26.7679 25.5334 26.9401 25.8796C27.1931 26.4044 27.5752 26.7885 28.0972 27.0481C28.4578 27.2267 28.5493 27.2483 29.0175 27.2645C29.4427 27.2808 29.5934 27.2645 29.8786 27.1672C31.0465 26.7722 31.7515 25.6308 31.5524 24.4623C31.321 23.0719 30.0078 22.1415 28.6516 22.412Z" fill="white"/>
<path d="M37.833 17.0347C37.8115 17.0509 37.7954 22.9151 37.7954 30.0669C37.7954 41.8656 37.8007 43.0612 37.8815 43.0937C38.0268 43.1478 42.2031 43.1261 42.7198 43.072C44.9048 42.8232 46.8315 41.487 47.881 39.5016C48.0155 39.2473 48.1931 38.8199 48.2846 38.5548C48.6237 37.5378 48.6129 37.8083 48.6129 30.0344C48.6129 23.8294 48.6022 22.9043 48.5268 22.5094C47.994 19.6909 45.8574 17.5648 43.0481 17.078C42.6713 17.013 42.0901 16.9968 40.2172 16.9968C38.9256 16.9968 37.8492 17.013 37.833 17.0347ZM43.5809 28.8172C44.4204 29.039 45.1093 29.6828 45.3892 30.5051C45.5668 31.0136 45.5614 31.7601 45.3838 32.2254C45.0555 33.0801 44.4097 33.6806 43.5809 33.9024C42.2354 34.2541 40.8038 33.4372 40.411 32.0956C40.2926 31.6844 40.2979 30.992 40.4325 30.57C40.8361 29.2446 42.2354 28.4656 43.5809 28.8172Z" fill="white"/>
</g>
</svg>
