<svg width="72" height="60" viewBox="0 0 72 60" fill="none" xmlns="http://www.w3.org/2000/svg">
<g opacity="0.85">
<path d="M53.2129 35.1999C52.8339 33.488 50.0858 32.558 45.862 32.2547C42.8296 32.039 39.8446 32.7063 36.934 33.7037L36.467 33.8655L36.4805 21.0806C36.4805 19.9618 38.7481 20.0359 38.7481 21.249V31.2775C43.3576 32.6052 45.7199 30.5631 45.7673 25.4747C45.8147 21.1008 42.877 18.6072 38.078 17.3199L30.5849 15.3452V30.5563L28.27 31.3381L19.87 34.1687C19.8429 34.1687 19.7955 34.189 19.7481 34.189C18.1981 34.7146 16.7428 35.8267 16.8376 37.397C16.9323 38.9875 20.5875 39.3717 23.4033 39.8232C26.0295 40.2478 28.4189 40.0119 30.5849 39.2504V40.9824L36.4535 42.883V42.7617L36.5008 42.883L41.6316 41.097L41.5097 41.0565L41.6316 41.097L50.1535 38.1046L50.2482 38.0777C52.5022 37.3161 53.4566 36.2176 53.2129 35.1999ZM30.5849 35.8671L27.891 36.7702L25.1225 37.7003C23.3356 38.3203 21.8058 36.8713 23.4506 36.2715L24.7841 35.793L30.5849 33.7239V35.8671ZM46.1531 35.8873L44.6234 36.413L36.467 39.1897V37.2622L41.6857 35.483L42.0851 35.3482L44.7384 34.4585C47.9401 33.8655 49.2261 34.9101 46.1531 35.8873Z" fill="white"/>
</g>
</svg>
