<svg width="72" height="60" viewBox="0 0 72 60" fill="none" xmlns="http://www.w3.org/2000/svg">
<g opacity="0.85">
<path d="M28.3415 36.198C27.4655 36.198 26.6615 36.048 25.9295 35.748C25.1975 35.436 24.5795 34.992 24.0755 34.416L25.8935 32.598C26.1215 32.934 26.4515 33.21 26.8835 33.426C27.3275 33.63 27.7955 33.732 28.2875 33.732C28.7315 33.732 29.1155 33.654 29.4395 33.498C29.7635 33.342 30.0155 33.12 30.1955 32.832C30.3875 32.544 30.4835 32.202 30.4835 31.806C30.4835 31.41 30.3875 31.074 30.1955 30.798C30.0155 30.51 29.7455 30.288 29.3855 30.132C29.0375 29.976 28.6175 29.898 28.1255 29.898C27.8975 29.898 27.6575 29.916 27.4055 29.952C27.1655 29.976 26.9615 30.018 26.7935 30.078L28.0355 28.512C28.3715 28.416 28.6895 28.338 28.9895 28.278C29.3015 28.206 29.5895 28.17 29.8535 28.17C30.5015 28.17 31.0835 28.326 31.5995 28.638C32.1155 28.938 32.5235 29.37 32.8235 29.934C33.1355 30.486 33.2915 31.146 33.2915 31.914C33.2915 32.754 33.0815 33.498 32.6615 34.146C32.2535 34.794 31.6775 35.298 30.9335 35.658C30.2015 36.018 29.3375 36.198 28.3415 36.198ZM26.7935 30.078V28.512L29.8895 24.876L33.0575 24.858L29.8355 28.53L26.7935 30.078ZM24.8675 25.686V23.292H33.0575V24.858L30.8435 25.686H24.8675ZM38.7742 36V33.516H41.9242C42.6922 33.516 43.3642 33.366 43.9402 33.066C44.5162 32.754 44.9602 32.304 45.2722 31.716C45.5842 31.128 45.7402 30.432 45.7402 29.628C45.7402 28.824 45.5782 28.134 45.2542 27.558C44.9422 26.982 44.4982 26.538 43.9222 26.226C43.3582 25.914 42.6922 25.758 41.9242 25.758H38.6842V23.292H41.9602C42.9202 23.292 43.8022 23.448 44.6062 23.76C45.4222 24.06 46.1302 24.498 46.7302 25.074C47.3422 25.638 47.8102 26.31 48.1342 27.09C48.4702 27.858 48.6382 28.71 48.6382 29.646C48.6382 30.57 48.4702 31.422 48.1342 32.202C47.8102 32.982 47.3482 33.654 46.7482 34.218C46.1482 34.782 45.4402 35.22 44.6242 35.532C43.8202 35.844 42.9442 36 41.9962 36H38.7742ZM36.8662 36V23.292H39.6922V36H36.8662Z" fill="white" fill-opacity="0.85"/>
<rect x="14.5" y="16.5" width="42" height="26" rx="4.5" stroke="white" stroke-opacity="0.85" stroke-width="3"/>
</g>
</svg>
