<svg width="72" height="60" viewBox="0 0 72 60" fill="none" xmlns="http://www.w3.org/2000/svg">
<g opacity="0.85">
<path fill-rule="evenodd" clip-rule="evenodd" d="M35.0865 41.99C33.2609 41.8109 31.4353 41.1541 29.8452 40.1092C28.5202 39.2434 28.2257 38.8852 28.2257 38.1388C28.2257 36.7058 29.7863 34.1682 32.4658 31.2723C33.997 29.6303 36.1171 27.7196 36.3232 27.7793C36.7649 27.8689 40.3278 31.3917 41.6528 33.0636C43.7729 35.6908 44.7446 37.8403 44.244 38.7956C43.8612 39.5121 41.535 40.9451 39.8567 41.4825C38.4433 41.9602 36.6177 42.1393 35.0865 41.99ZM26.459 36.6461C25.3695 34.9444 24.81 33.2427 24.545 30.7946C24.4567 29.9886 24.4861 29.5407 24.7511 27.8689C25.075 25.8089 26.2234 23.4206 27.6074 21.9577C28.1963 21.3308 28.2552 21.3308 28.9618 21.5696C29.8452 21.8682 30.758 22.525 32.2303 23.8684L33.0842 24.6446L32.6131 25.2119C30.4636 27.8988 28.1963 31.6903 27.3423 34.0189C26.8712 35.3026 26.6945 36.5864 26.9007 37.0939C27.0184 37.482 26.9007 37.3626 26.459 36.6461ZM45.7457 36.9446C45.8635 36.4073 45.7163 35.4221 45.3924 34.407C44.6857 32.2575 42.3595 28.2271 40.2394 25.5104L39.5622 24.6446L40.2983 23.958C41.2406 23.0623 41.9178 22.525 42.6245 22.0771C43.184 21.7189 43.979 21.4203 44.3324 21.4203C44.5385 21.4203 45.3041 22.1966 45.893 23.0623C46.8352 24.4058 47.5125 26.0179 47.8658 27.6898C48.1014 28.7944 48.1014 31.123 47.8953 32.1978C47.7186 33.0934 47.3652 34.2577 47.0119 35.034C46.7469 35.631 46.0991 36.7655 45.8046 37.1238C45.6574 37.3626 45.6574 37.3626 45.7457 36.9446ZM35.2926 21.0322C34.2915 20.5247 32.7897 19.9873 31.9358 19.8381C31.6414 19.7784 31.1408 19.7485 30.8169 19.7784C30.1102 19.8082 30.1397 19.7784 31.2586 19.241C32.1714 18.7932 32.9664 18.5245 33.997 18.3155C35.1748 18.0767 37.3832 18.0468 38.5611 18.3155C39.8272 18.5842 41.2995 19.1514 42.124 19.6589L42.3595 19.8082L41.8001 19.7784C40.6811 19.7186 39.0322 20.1963 37.2655 21.0621C36.7354 21.3308 36.2643 21.5398 36.2349 21.5398C36.2054 21.5099 35.7932 21.2711 35.2926 21.0322Z" fill="white"/>
</g>
</svg>
