<svg width="75" height="59" viewBox="0 0 75 59" fill="none" xmlns="http://www.w3.org/2000/svg">
<path d="M47.9593 45.8263C52.4727 45.8263 56.9862 45.8263 61.4996 45.8263C68.1364 45.8263 73.5166 40.4461 73.5166 33.8093C73.5166 27.1725 68.1364 21.7923 61.4996 21.7923L61.439 21.7924C60.5909 10.2081 50.9237 1.07324 39.1229 1.07324C29.968 1.07324 22.0972 6.57104 18.632 14.4451C18.0137 14.3714 17.3845 14.3334 16.7465 14.3334C8.04993 14.3334 1 21.3833 1 30.0799C1 38.7764 8.04993 45.8263 16.7465 45.8263C16.7526 45.8263 16.7587 45.8263 16.7649 45.8263C21.416 45.8263 26.0671 45.8263 30.7182 45.8263" stroke="#5B5B5B" stroke-linecap="round"></path>
<path d="M49.7481 28.1774L49.2876 27.9826L49.7481 28.1774ZM38.6598 54.3862L38.1993 54.1914L38.6598 54.3862ZM37.5283 12.1381L37.0694 11.9396L37.5283 12.1381ZM37.0694 11.9396L25.6923 38.2333L26.6101 38.6304L37.9872 12.3367L37.0694 11.9396ZM26.9238 40.1079H36.2009V39.1079H26.9238V40.1079ZM36.5427 40.4497V54.0582H37.5427V40.4497H36.5427ZM39.1202 54.5811L50.2086 28.3722L49.2876 27.9826L38.1993 54.1914L39.1202 54.5811ZM48.9728 26.5076H39.9845V27.5076H48.9728V26.5076ZM39.6427 26.1658V12.4724H38.6427V26.1658H39.6427ZM39.9845 26.5076C39.7957 26.5076 39.6427 26.3546 39.6427 26.1658H38.6427C38.6427 26.9069 39.2434 27.5076 39.9845 27.5076V26.5076ZM50.2086 28.3722C50.5829 27.4875 49.9334 26.5076 48.9728 26.5076V27.5076C49.2175 27.5076 49.3829 27.7572 49.2876 27.9826L50.2086 28.3722ZM36.5427 54.0582C36.5427 55.5209 38.5503 55.9281 39.1202 54.5811L38.1993 54.1914C38.0541 54.5346 37.5427 54.4308 37.5427 54.0582H36.5427ZM36.2009 40.1079C36.3896 40.1079 36.5427 40.261 36.5427 40.4497H37.5427C37.5427 39.7087 36.9419 39.1079 36.2009 39.1079V40.1079ZM25.6923 38.2333C25.309 39.1192 25.9585 40.1079 26.9238 40.1079V39.1079C26.6779 39.1079 26.5125 38.8561 26.6101 38.6304L25.6923 38.2333ZM37.9872 12.3367C38.1345 11.9962 38.6427 12.1014 38.6427 12.4724H39.6427C39.6427 11.0159 37.6478 10.6028 37.0694 11.9396L37.9872 12.3367Z" fill="#5B5B5B"></path>
</svg>