<svg width="51" height="37" viewBox="0 0 51 37" fill="none" xmlns="http://www.w3.org/2000/svg">
<path d="M0.879333 35.9998C15.2037 34.5563 32.0821 21.6754 41.9649 10.6823" stroke="#5B5B5B" stroke-linecap="round"></path>
<path d="M19.469 19.0054C13.3855 21.9731 11.8866 26.0179 12.1794 32.2966C12.1893 32.5092 12.3329 32.6924 12.5382 32.7486C20.5602 34.9447 31.9559 34.6931 42.3041 25.2319C42.6354 24.929 42.4189 24.3948 41.9702 24.3841C41.1754 24.3653 40.2137 24.2859 38.9391 23.9925C38.4877 23.8885 38.439 23.2767 38.8509 23.0648C45.9439 19.4158 50.6821 12.6715 50.0276 1.87234C50.0106 1.59088 49.76 1.37894 49.48 1.41265C37.2467 2.88573 26.3383 10.6746 21.1809 21.6236C20.9656 22.0807 20.2928 21.9906 20.2529 21.4869C20.1946 20.752 20.1774 20.0792 20.1723 19.45C20.1693 19.0873 19.795 18.8464 19.469 19.0054Z" stroke="#5B5B5B"></path>
</svg>