<svg width="56" height="56" viewBox="0 0 56 56" fill="none" xmlns="http://www.w3.org/2000/svg">
<path d="M12.9943 18.3909H43.4888C45.297 18.3909 46.8315 19.7175 47.0928 21.5067L51.194 49.5813C51.5151 51.7791 49.8111 53.7501 47.5899 53.7501H8.89309C6.67192 53.7501 4.96795 51.7791 5.28901 49.5813L9.39018 21.5067C9.65155 19.7175 11.186 18.3909 12.9943 18.3909Z" stroke="white" stroke-width="0.5"/>
<path d="M16.7387 22.5265C17.3644 24.0371 18.2815 25.4096 19.4377 26.5658C20.5938 27.7219 21.9663 28.639 23.4769 29.2647C24.9874 29.8904 26.6064 30.2124 28.2414 30.2124C29.8765 30.2124 31.4955 29.8904 33.006 29.2647C34.5166 28.639 35.8891 27.7219 37.0452 26.5658C38.2014 25.4096 39.1184 24.0371 39.7441 22.5265" stroke="white" stroke-width="0.5"/>
<path d="M16.7392 18.1408L16.7383 13.5027C16.7383 7.14994 21.8882 2 28.241 2C34.5938 2 39.7437 7.14995 39.7437 13.5027L39.7446 18.1408" stroke="white" stroke-width="0.5"/>
</svg>
