<svg width="85" height="85" viewBox="0 0 85 85" fill="none" xmlns="http://www.w3.org/2000/svg">
<path opacity="0.95" d="M25.2 15.747H11.8C9.7 15.747 8 17.447 8 19.547V58.947C8 61.047 9.7 62.747 11.8 62.747H20.1V82.047L35.1 62.747H73.9C76 62.747 77.7 61.047 77.7 58.947V19.447C77.7 17.347 76 15.647 73.9 15.647H60.5" stroke="white" stroke-miterlimit="10"/>
<g opacity="0.95">
<g opacity="0.95">
<path opacity="0.95" d="M18.7002 45.8469H31.5002" stroke="white" stroke-miterlimit="10"/>
<path opacity="0.95" d="M39.1006 45.8469H67.1006" stroke="white" stroke-miterlimit="10"/>
</g>
<g opacity="0.95">
<path opacity="0.95" d="M67.0998 37.5469H58.7998" stroke="white" stroke-miterlimit="10"/>
<path opacity="0.95" d="M51.2002 37.5469H18.7002" stroke="white" stroke-miterlimit="10"/>
</g>
</g>
<path opacity="0.95" d="M51.9002 3.54692C48.4002 2.04692 44.4002 3.74692 42.9002 7.24692C41.4002 3.74692 37.4002 2.14692 33.9002 3.54692C30.4002 5.04692 28.7002 9.04692 30.2002 12.5469C31.6002 16.0469 42.9002 25.2469 42.9002 25.2469C42.9002 25.2469 54.2002 16.0469 55.6002 12.5469C57.1002 9.04692 55.4002 4.94692 51.9002 3.54692Z" stroke="white" stroke-miterlimit="10"/>
</svg>
