<svg width="56" height="56" viewBox="0 0 56 56" fill="none" xmlns="http://www.w3.org/2000/svg">
<path d="M16.1615 20.6904H39.665C41.0303 20.6904 42.1888 21.692 42.3862 23.0429L45.5471 44.6813C45.7895 46.3407 44.503 47.8288 42.826 47.8288H13.0006C11.3236 47.8288 10.0371 46.3407 10.2795 44.6813L13.4404 23.0429C13.6378 21.692 14.7963 20.6904 16.1615 20.6904Z" stroke="white" stroke-width="0.5"/>
<path d="M19.0475 23.8208C19.5298 24.985 20.2366 26.0429 21.1277 26.934C22.0188 27.8251 23.0766 28.5319 24.2409 29.0142C25.4051 29.4964 26.653 29.7446 27.9132 29.7446C29.1733 29.7446 30.4212 29.4964 31.5854 29.0142C32.7497 28.5319 33.8076 27.8251 34.6986 26.934C35.5897 26.0429 36.2966 24.985 36.7788 23.8208" stroke="white" stroke-width="0.5"/>
<path d="M19.0476 20.4404L19.0469 16.8657C19.0469 11.9693 23.0162 8 27.9125 8C32.8089 8 36.7782 11.9693 36.7782 16.8657L36.7789 20.4404" stroke="white" stroke-width="0.5"/>
</svg>
