<svg width="54" height="46" viewBox="0 0 54 46" fill="none" xmlns="http://www.w3.org/2000/svg">
<path d="M0.924316 36.1874V38.9269C0.924316 40.0233 1.74573 40.9459 2.83485 41.0727L3.27536 41.124C3.87164 41.1934 4.44631 40.879 4.71071 40.34C7.10399 35.4617 11.6083 26.506 12.6218 23.5675C13.5935 20.7503 14.1142 17.7473 15.1638 15.8981C17.3366 11.145 20.5859 7.13105 25.6366 5.12547C31.0755 2.96576 40.6993 3.10954 46.3074 4.10652C47.2792 4.27927 48.1427 4.50005 48.8422 4.71635C49.9997 5.07426 50.414 6.22116 49.7618 7.2421C47.3356 11.0397 41.7675 16.2778 39.7288 18.1474C37.6906 20.0165 34.5364 19.7889 30.4867 23.5493C28.8779 25.0432 21.2541 32.4185 16.3567 37.1792C15.5838 37.9305 15.5472 39.1585 16.2722 39.9561L20.7325 44.8624C21.4996 45.7062 22.8141 45.7403 23.6145 44.928C28.121 40.3549 34.5503 33.5494 36.9895 31.2553C41.2488 27.2492 40.1685 23.289 44.6583 19.3522C50.3534 14.3584 52.7381 9.65452 53.0889 7.81274C53.2997 6.70622 53.6605 3.46698 50.8759 2.12206C48.3821 0.917647 31.1779 -0.413637 24.7409 2.43821C18.2622 5.30847 15.3844 9.72453 13.0265 14.896C12.1506 16.8172 10.3279 17.58 9.0915 19.9318C7.99982 22.0084 2.4685 32.6393 1.18884 35.0991C1.01303 35.437 0.924316 35.8065 0.924316 36.1874Z" stroke="white" stroke-width="0.5"/>
</svg>
